<svg width="60" height="62" viewBox="0 0 60 62" fill="none" xmlns="http://www.w3.org/2000/svg">
<g filter="url(#filter0_d_24_118)">
<path d="M39.09 25.98C38.24 25.04 36.82 24.57 34.76 24.57H34.52V24.53C34.52 22.85 34.52 20.77 30.76 20.77H29.24C25.48 20.77 25.48 22.86 25.48 24.53V24.58H25.24C23.17 24.58 21.76 25.05 20.91 25.99C19.92 27.09 19.95 28.57 20.05 29.58L20.06 29.65L20.16 30.7C20.17 30.71 20.19 30.73 20.21 30.74C20.54 30.96 20.88 31.18 21.24 31.38C21.38 31.47 21.53 31.55 21.68 31.63C23.39 32.57 25.27 33.2 27.18 33.51C27.27 34.45 27.68 35.55 29.87 35.55C32.06 35.55 32.49 34.46 32.56 33.49C34.6 33.16 36.57 32.45 38.35 31.41C38.41 31.38 38.45 31.35 38.5 31.32C38.96 31.06 39.39 30.78 39.81 30.47C39.83 30.46 39.85 30.44 39.86 30.42L39.9 30.06L39.95 29.59C39.96 29.53 39.96 29.48 39.97 29.41C40.05 28.4 40.03 27.02 39.09 25.98ZM31.09 32.83C31.09 33.89 31.09 34.05 29.86 34.05C28.63 34.05 28.63 33.86 28.63 32.84V31.58H31.09V32.83ZM26.91 24.57V24.53C26.91 22.83 26.91 22.2 29.24 22.2H30.76C33.09 22.2 33.09 22.84 33.09 24.53V24.58H26.91V24.57Z" fill="#97FF7D" fill-opacity="0.88"/>
<path opacity="0.4" d="M38.5 31.3C38.45 31.33 38.4 31.36 38.35 31.39C36.57 32.43 34.6 33.13 32.56 33.47C32.48 34.43 32.06 35.53 29.87 35.53C27.68 35.53 27.26 34.44 27.18 33.49C25.27 33.19 23.39 32.56 21.68 31.61C21.53 31.53 21.38 31.45 21.24 31.36C20.88 31.16 20.54 30.94 20.21 30.72C20.19 30.71 20.17 30.69 20.16 30.68L20.77 37.19C20.98 39.18 21.8 41.23 26.2 41.23H33.82C38.22 41.23 39.04 39.18 39.25 37.18L39.88 30.4C39.87 30.42 39.85 30.44 39.83 30.45C39.4 30.76 38.96 31.05 38.5 31.3Z" fill="#97FF7D" fill-opacity="0.88"/>
</g>
<defs>
<filter id="filter0_d_24_118" x="0.00292969" y="0.769997" width="59.9967" height="60.46" filterUnits="userSpaceOnUse" color-interpolation-filters="sRGB">
<feFlood flood-opacity="0" result="BackgroundImageFix"/>
<feColorMatrix in="SourceAlpha" type="matrix" values="0 0 0 0 0 0 0 0 0 0 0 0 0 0 0 0 0 0 127 0" result="hardAlpha"/>
<feOffset/>
<feGaussianBlur stdDeviation="10"/>
<feComposite in2="hardAlpha" operator="out"/>
<feColorMatrix type="matrix" values="0 0 0 0 0.413333 0 0 0 0 0.984314 0 0 0 0 0.270588 0 0 0 0.88 0"/>
<feBlend mode="normal" in2="BackgroundImageFix" result="effect1_dropShadow_24_118"/>
<feBlend mode="normal" in="SourceGraphic" in2="effect1_dropShadow_24_118" result="shape"/>
</filter>
</defs>
</svg>
