<svg width="58" height="60" viewBox="0 0 58 60" fill="none" xmlns="http://www.w3.org/2000/svg">
<g filter="url(#filter0_d_20_100)">
<path d="M29.0699 26.95C29.0299 26.95 28.9699 26.95 28.9199 26.95C27.8699 26.91 27.0399 26.06 27.0399 25C27.0399 23.92 27.9099 23.05 28.9899 23.05C30.0699 23.05 30.9399 23.93 30.9399 25C30.9499 26.06 30.1199 26.92 29.0699 26.95Z" fill="#FFAB00"/>
<path d="M26.2499 29.96C24.9199 30.85 24.9199 32.3 26.2499 33.19C27.7599 34.2 30.2399 34.2 31.7499 33.19C33.0799 32.3 33.0799 30.85 31.7499 29.96C30.2399 28.96 27.7699 28.96 26.2499 29.96Z" fill="#FFAB00"/>
<path opacity="0.4" d="M35 20H23C21.34 20 20 21.33 20 22.97V33.88C20 35.52 21.34 36.85 23 36.85H23.76C24.56 36.85 25.32 37.16 25.88 37.72L27.59 39.41C28.37 40.18 29.64 40.18 30.42 39.41L32.13 37.72C32.69 37.16 33.46 36.85 34.25 36.85H35C36.66 36.85 38 35.52 38 33.88V22.97C38 21.33 36.66 20 35 20ZM29 23.05C30.08 23.05 30.95 23.93 30.95 25C30.95 26.06 30.11 26.91 29.07 26.95C29.03 26.95 28.97 26.95 28.92 26.95C27.87 26.91 27.04 26.06 27.04 25C27.05 23.93 27.92 23.05 29 23.05ZM31.75 33.19C30.24 34.2 27.76 34.2 26.25 33.19C24.92 32.31 24.92 30.85 26.25 29.96C27.77 28.95 30.25 28.95 31.75 29.96C33.08 30.85 33.08 32.3 31.75 33.19Z" fill="#FFAB00"/>
</g>
<defs>
<filter id="filter0_d_20_100" x="0" y="0" width="58" height="59.9875" filterUnits="userSpaceOnUse" color-interpolation-filters="sRGB">
<feFlood flood-opacity="0" result="BackgroundImageFix"/>
<feColorMatrix in="SourceAlpha" type="matrix" values="0 0 0 0 0 0 0 0 0 0 0 0 0 0 0 0 0 0 127 0" result="hardAlpha"/>
<feOffset/>
<feGaussianBlur stdDeviation="10"/>
<feComposite in2="hardAlpha" operator="out"/>
<feColorMatrix type="matrix" values="0 0 0 0 0.980392 0 0 0 0 0.560784 0 0 0 0 0.129412 0 0 0 1 0"/>
<feBlend mode="normal" in2="BackgroundImageFix" result="effect1_dropShadow_20_100"/>
<feBlend mode="normal" in="SourceGraphic" in2="effect1_dropShadow_20_100" result="shape"/>
</filter>
</defs>
</svg>
