<svg width="30" height="30" viewBox="0 0 30 30" fill="none" xmlns="http://www.w3.org/2000/svg">
<rect width="30" height="30" rx="8" fill="#1B1D22"/>
<path opacity="0.4" d="M20.0284 12.9291C19.4159 10.2341 17.0651 9.02081 15.0001 9.02081C15.0001 9.02081 15.0001 9.02081 14.9942 9.02081C12.9351 9.02081 10.5784 10.2283 9.96589 12.9233C9.28339 15.9333 11.1267 18.4825 12.7951 20.0866C13.4134 20.6816 14.2067 20.9791 15.0001 20.9791C15.7934 20.9791 16.5867 20.6816 17.1992 20.0866C18.8676 18.4825 20.7109 15.9391 20.0284 12.9291Z" fill="white"/>
<path d="M15.0001 15.8517C16.0149 15.8517 16.8376 15.029 16.8376 14.0142C16.8376 12.9994 16.0149 12.1767 15.0001 12.1767C13.9853 12.1767 13.1626 12.9994 13.1626 14.0142C13.1626 15.029 13.9853 15.8517 15.0001 15.8517Z" fill="white"/>
</svg>
