<svg width="61" height="60" viewBox="0 0 61 60" fill="none" xmlns="http://www.w3.org/2000/svg">
<g filter="url(#filter0_d_210_180)">
<path opacity="0.4" d="M40.6602 28.44L39.6802 32.62C38.8402 36.23 37.1802 37.69 34.0602 37.39C33.5602 37.35 33.0202 37.26 32.4402 37.12L30.7602 36.72C26.5902 35.73 25.3002 33.67 26.2802 29.49L27.2602 25.3C27.4602 24.45 27.7002 23.71 28.0002 23.1C29.1702 20.68 31.1602 20.03 34.5002 20.82L36.1702 21.21C40.3602 22.19 41.6402 24.26 40.6602 28.44Z" fill="white"/>
<path d="M34.0599 37.39C33.4399 37.81 32.6599 38.16 31.7099 38.47L30.1299 38.99C26.1599 40.27 24.0699 39.2 22.7799 35.23L21.4999 31.28C20.2199 27.31 21.2799 25.21 25.2499 23.93L26.8299 23.41C27.2399 23.28 27.6299 23.17 27.9999 23.1C27.6999 23.71 27.4599 24.45 27.2599 25.3L26.2799 29.49C25.2999 33.67 26.5899 35.73 30.7599 36.72L32.4399 37.12C33.0199 37.26 33.5599 37.35 34.0599 37.39Z" fill="white"/>
<path d="M36.4899 28.51C36.4299 28.51 36.3699 28.5 36.2999 28.49L31.4499 27.26C31.0499 27.16 30.8099 26.75 30.9099 26.35C31.0099 25.95 31.4199 25.71 31.8199 25.81L36.6699 27.04C37.0699 27.14 37.3099 27.55 37.2099 27.95C37.1299 28.28 36.8199 28.51 36.4899 28.51Z" fill="white"/>
<path d="M33.5601 31.89C33.5001 31.89 33.4401 31.88 33.3701 31.87L30.4601 31.13C30.0601 31.03 29.8201 30.62 29.9201 30.22C30.0201 29.82 30.4301 29.58 30.8301 29.68L33.7401 30.42C34.1401 30.52 34.3801 30.93 34.2801 31.33C34.2001 31.67 33.9001 31.89 33.5601 31.89Z" fill="white"/>
</g>
<defs>
<filter id="filter0_d_210_180" x="0.98584" y="0.501465" width="59.9868" height="59.0008" filterUnits="userSpaceOnUse" color-interpolation-filters="sRGB">
<feFlood flood-opacity="0" result="BackgroundImageFix"/>
<feColorMatrix in="SourceAlpha" type="matrix" values="0 0 0 0 0 0 0 0 0 0 0 0 0 0 0 0 0 0 127 0" result="hardAlpha"/>
<feOffset/>
<feGaussianBlur stdDeviation="10"/>
<feComposite in2="hardAlpha" operator="out"/>
<feColorMatrix type="matrix" values="0 0 0 0 1 0 0 0 0 1 0 0 0 0 1 0 0 0 0.67 0"/>
<feBlend mode="normal" in2="BackgroundImageFix" result="effect1_dropShadow_210_180"/>
<feBlend mode="normal" in="SourceGraphic" in2="effect1_dropShadow_210_180" result="shape"/>
</filter>
</defs>
</svg>
