<svg width="32" height="32" viewBox="0 0 32 32" fill="none" xmlns="http://www.w3.org/2000/svg">
<path d="M9.1843 0.164978H22.4857C27.5529 0.164978 31.67 4.28208 31.67 9.34928V22.6507C31.67 25.0865 30.7024 27.4226 28.98 29.145C27.2576 30.8674 24.9215 31.835 22.4857 31.835H9.1843C4.1171 31.835 0 27.7179 0 22.6507V9.34928C0 6.91345 0.967629 4.57739 2.69002 2.855C4.41241 1.13261 6.74847 0.164978 9.1843 0.164978M8.8676 3.33198C7.35571 3.33198 5.90574 3.93258 4.83667 5.00165C3.7676 6.07072 3.167 7.52068 3.167 9.03258V22.9674C3.167 26.1185 5.71643 28.668 8.8676 28.668H22.8024C24.3143 28.668 25.7643 28.0674 26.8333 26.9983C27.9024 25.9292 28.503 24.4793 28.503 22.9674V9.03258C28.503 5.88141 25.9536 3.33198 22.8024 3.33198H8.8676ZM24.1484 5.70723C24.6733 5.70723 25.1768 5.91577 25.548 6.28697C25.9192 6.65818 26.1278 7.16164 26.1278 7.6866C26.1278 8.21157 25.9192 8.71503 25.548 9.08623C25.1768 9.45744 24.6733 9.66598 24.1484 9.66598C23.6234 9.66598 23.1199 9.45744 22.7487 9.08623C22.3775 8.71503 22.169 8.21157 22.169 7.6866C22.169 7.16164 22.3775 6.65818 22.7487 6.28697C23.1199 5.91577 23.6234 5.70723 24.1484 5.70723ZM15.835 8.08248C17.9349 8.08248 19.9487 8.91664 21.4335 10.4015C22.9183 11.8863 23.7525 13.9001 23.7525 16C23.7525 18.0998 22.9183 20.1137 21.4335 21.5985C19.9487 23.0833 17.9349 23.9175 15.835 23.9175C13.7351 23.9175 11.7213 23.0833 10.2365 21.5985C8.75166 20.1137 7.9175 18.0998 7.9175 16C7.9175 13.9001 8.75166 11.8863 10.2365 10.4015C11.7213 8.91664 13.7351 8.08248 15.835 8.08248M15.835 11.2495C14.5751 11.2495 13.3668 11.75 12.4759 12.6409C11.585 13.5318 11.0845 14.7401 11.0845 16C11.0845 17.2599 11.585 18.4682 12.4759 19.3591C13.3668 20.25 14.5751 20.7505 15.835 20.7505C17.0949 20.7505 18.3032 20.25 19.1941 19.3591C20.085 18.4682 20.5855 17.2599 20.5855 16C20.5855 14.7401 20.085 13.5318 19.1941 12.6409C18.3032 11.75 17.0949 11.2495 15.835 11.2495Z" fill="white"/>
</svg>
