<svg width="45" height="32" viewBox="0 0 45 32" fill="none" xmlns="http://www.w3.org/2000/svg">
<path d="M18.1379 22.5505L29.4703 16L18.1379 9.44952V22.5505ZM43.3792 5.45371C43.663 6.47996 43.8595 7.85556 43.9906 9.60236C44.1434 11.3492 44.2089 12.8558 44.2089 14.1659L44.3399 16C44.3399 20.7819 43.9906 24.2973 43.3792 26.5463C42.8333 28.5115 41.5669 29.7779 39.6017 30.3238C38.5755 30.6076 36.6977 30.8042 33.8154 30.9352C30.9769 31.088 28.3785 31.1535 25.9767 31.1535L22.5049 31.2845C13.3561 31.2845 7.65712 30.9352 5.40812 30.3238C3.44297 29.7779 2.17654 28.5115 1.63066 26.5463C1.34681 25.5201 1.15029 24.1445 1.01928 22.3977C0.866437 20.6509 0.800932 19.1443 0.800932 17.8342L0.669922 16C0.669922 11.2182 1.01928 7.70272 1.63066 5.45371C2.17654 3.48856 3.44297 2.22213 5.40812 1.67626C6.43436 1.3924 8.31217 1.19588 11.1944 1.06487C14.0329 0.91203 16.6313 0.846525 19.0332 0.846525L22.5049 0.715515C31.6538 0.715515 37.3527 1.06488 39.6017 1.67626C41.5669 2.22213 42.8333 3.48856 43.3792 5.45371V5.45371Z" fill="white"/>
</svg>
