<svg width="100" height="32" viewBox="0 0 100 32" fill="none" xmlns="http://www.w3.org/2000/svg">
<g clip-path="url(#clip0_174_199)">
<path d="M28.6662 22.5992C28.5094 22.22 28.3623 21.8214 28.2054 21.4812L27.4799 19.8576L27.4505 19.8284C25.2937 15.1617 22.9897 10.4173 20.5486 5.7506L20.4505 5.55616C20.2054 5.09922 19.9603 4.59366 19.7054 4.12699C19.3917 3.57283 19.0878 2.97977 18.5878 2.41588C18.1004 1.82587 17.487 1.35051 16.7919 1.0241C16.0968 0.697694 15.3373 0.528381 14.5682 0.528381C13.7991 0.528381 13.0396 0.697694 12.3444 1.0241C11.6493 1.35051 11.0359 1.82587 10.5486 2.41588C10.0878 2.97977 9.74465 3.57283 9.43093 4.12699C9.18583 4.63255 8.94073 5.12838 8.68583 5.58533L8.58779 5.77977C6.18583 10.4464 3.84269 15.1909 1.68583 19.8576L1.627 19.9159C1.41132 20.4214 1.15642 20.9464 0.911318 21.5103C0.754455 21.8506 0.597592 22.22 0.440729 22.6284C0.0172319 23.6976 -0.118004 24.8578 0.0483492 25.9947C0.214703 27.1315 0.676904 28.2058 1.3894 29.1116C2.1019 30.0173 3.0401 30.7234 4.11154 31.1601C5.18298 31.5968 6.35068 31.7491 7.49955 31.602C8.60099 31.4582 9.66159 31.0944 10.6172 30.5326C11.8917 29.8228 13.1172 28.7923 14.4897 27.3048C15.8623 28.7923 17.1172 29.8228 18.3623 30.5423C19.5597 31.2392 20.9156 31.6239 22.3035 31.6603C23.9107 31.6669 25.466 31.0967 26.6824 30.0549C27.8987 29.0131 28.6939 27.5701 28.9211 25.9923C29.1837 24.8584 29.0949 23.6724 28.6662 22.5895V22.5992ZM14.5878 24.2131C12.9015 22.0742 11.8035 20.1103 11.4309 18.4284C11.2766 17.8051 11.2433 17.1584 11.3329 16.5228C11.4015 16.027 11.5878 15.5895 11.8427 15.22C12.4309 14.3742 13.4603 13.8492 14.5878 13.8492C15.1232 13.833 15.6543 13.9489 16.1334 14.1864C16.6126 14.424 17.0247 14.7758 17.3329 15.2103C17.5878 15.5992 17.7741 16.027 17.8329 16.5228C17.9309 17.0867 17.8917 17.7381 17.7348 18.4284C17.3623 20.0812 16.2643 22.0645 14.5878 24.2131ZM27.078 25.652C26.9666 26.4531 26.6455 27.2112 26.1466 27.8509C25.6478 28.4905 24.9886 28.9894 24.2348 29.2978C23.4897 29.6089 22.6662 29.6964 21.8623 29.6089C21.078 29.5117 20.2937 29.2589 19.4897 28.7923C18.1549 27.9741 16.9547 26.9577 15.9309 25.7784C17.9897 23.2506 19.2348 20.9464 19.7054 18.8951C19.9309 17.9228 19.9603 17.0478 19.8623 16.2409C19.7399 15.476 19.4523 14.7464 19.0192 14.102C18.5246 13.4032 17.8646 12.8356 17.097 12.4491C16.3295 12.0626 15.4779 11.869 14.6172 11.8853C12.8035 11.8853 11.1858 12.7214 10.2054 14.0923C9.7641 14.7351 9.47887 15.4705 9.3721 16.2409C9.24465 17.0575 9.27406 17.9617 9.52896 18.8951C9.99955 20.9464 11.2741 23.2798 13.3035 25.7978C12.2971 26.9996 11.094 28.0251 9.74465 28.8312C8.93093 29.2978 8.15642 29.5409 7.3721 29.6381C6.15238 29.793 4.92029 29.4643 3.94363 28.7234C2.96698 27.9824 2.3247 26.8891 2.15642 25.6812C2.05838 24.9034 2.127 24.1256 2.44073 23.2506C2.53877 22.9395 2.68583 22.6284 2.84269 22.2589C3.05838 21.7534 3.31328 21.2284 3.55838 20.7034L3.59759 20.6353C5.71524 15.9978 8.02896 11.2631 10.4309 6.6256L10.529 6.43116C10.7741 5.96449 11.0192 5.46866 11.2741 5.00199C11.529 4.50616 11.8035 4.02977 12.1564 3.64088C12.4619 3.27924 12.8437 2.9884 13.2747 2.78884C13.7058 2.58929 14.1758 2.48587 14.6515 2.48587C15.1273 2.48587 15.5972 2.58929 16.0283 2.78884C16.4594 2.9884 16.8411 3.27924 17.1466 3.64088C17.4897 4.02977 17.7741 4.50616 18.029 5.00199C18.2741 5.46866 18.5192 5.97422 18.7741 6.43116L18.8721 6.6256C21.2643 11.2631 23.578 15.9978 25.7348 20.6353L25.7643 20.6645C26.0192 21.17 26.2348 21.7339 26.4799 22.2201C26.6368 22.5992 26.7937 22.9006 26.8917 23.2214C27.078 24.0964 27.176 24.8742 27.078 25.652V25.652ZM40.725 23.9992C39.9863 24.0099 39.2546 23.8556 38.5842 23.5476C37.9138 23.2396 37.3219 22.7858 36.8525 22.2201C35.7977 21.0145 35.2378 19.46 35.2839 17.8645C35.2677 16.2343 35.8456 14.6531 36.9113 13.4117C37.4043 12.8387 38.0179 12.3798 38.709 12.0674C39.4001 11.755 40.1518 11.5966 40.9113 11.6034C41.626 11.584 42.3338 11.7451 42.9684 12.0717C43.6029 12.3982 44.1433 12.8794 44.5388 13.47L44.6368 11.9437H47.4996V23.6881H44.627L44.529 21.977C44.1213 22.6076 43.5578 23.1245 42.892 23.4784C42.2263 23.8323 41.4803 24.0116 40.725 23.9992V23.9992ZM41.4701 21.1992C42.0388 21.1992 42.5388 21.0437 43.0094 20.7617C43.4407 20.4506 43.7937 20.0423 44.0682 19.5464C44.3133 19.0506 44.4407 18.4575 44.4407 17.7964C44.4789 17.2222 44.3662 16.648 44.1136 16.13C43.861 15.6119 43.4771 15.1677 42.9996 14.8409C42.5407 14.5573 42.0108 14.4071 41.4701 14.4071C40.9295 14.4071 40.3996 14.5573 39.9407 14.8409C39.5094 15.152 39.1564 15.5603 38.8819 16.0562C38.6226 16.603 38.4951 17.2021 38.5094 17.8062C38.4711 18.3804 38.5838 18.9546 38.8365 19.4726C39.0891 19.9907 39.4729 20.4349 39.9505 20.7617C40.4113 21.0437 40.9113 21.1992 41.4701 21.1992ZM52.4015 8.77422C52.4015 9.11449 52.3427 9.4256 52.1858 9.67838C52.029 9.92144 51.8133 10.145 51.529 10.3006C51.2447 10.4562 50.9407 10.5145 50.627 10.5145C50.3133 10.5145 49.9996 10.4562 49.7152 10.3006C49.4463 10.1522 49.2202 9.93796 49.0584 9.67838C48.9065 9.40143 48.8321 9.08928 48.8427 8.77422C48.8427 8.42422 48.9113 8.1131 49.0584 7.87005C49.2152 7.57838 49.4407 7.40338 49.7152 7.24783C49.9996 7.09227 50.3035 7.02422 50.627 7.02422C50.9391 7.01708 51.2477 7.09038 51.5226 7.23693C51.7976 7.38349 52.0295 7.59828 52.1956 7.86033C52.3383 8.14378 52.409 8.4575 52.4015 8.77422V8.77422ZM49.0682 23.6492V11.9242H52.1858V23.6687H49.0584L49.0682 23.6492ZM60.5192 14.9964V15.0353C60.3721 14.9673 60.176 14.9381 60.029 14.9089C59.8329 14.87 59.676 14.87 59.4897 14.87C58.6172 14.87 57.9603 15.1228 57.529 15.6478C57.0584 16.1825 56.8427 16.9312 56.8427 17.8937V23.6589H53.7152V11.9145H56.5878L56.6858 13.6937C56.9996 13.0714 57.3721 12.6048 57.9015 12.2548C58.4281 11.9147 59.0481 11.7449 59.676 11.7687C59.9015 11.7687 60.1172 11.7881 60.3035 11.827C60.4015 11.8562 60.4603 11.8562 60.5192 11.8853V14.9964V14.9964ZM61.7741 23.6492V7.10199H64.8917V13.4214C65.3329 12.8575 65.8329 12.42 66.4603 12.0798C67.4537 11.5968 68.5821 11.4598 69.6636 11.6909C70.7451 11.922 71.7165 12.5076 72.4211 13.3534C73.4783 14.5615 74.0383 16.1198 73.9898 17.7187C74.0059 19.3489 73.428 20.9301 72.3623 22.1714C71.8694 22.7444 71.2557 23.2033 70.5646 23.5158C69.8735 23.8282 69.1218 23.9866 68.3623 23.9798C67.6477 23.9992 66.9398 23.838 66.3052 23.5115C65.6707 23.1849 65.1303 22.7037 64.7348 22.1131L64.6368 23.6395L61.7741 23.6687V23.6492ZM67.8035 21.1992C68.3623 21.1992 68.8623 21.0437 69.3329 20.7617C69.7643 20.4506 70.1172 20.0423 70.3917 19.5464C70.6466 19.0506 70.7643 18.4575 70.7643 17.7964C70.7643 17.145 70.6466 16.552 70.3917 16.0562C70.1343 15.5781 69.7725 15.1629 69.3329 14.8409C68.874 14.5573 68.3442 14.4071 67.8035 14.4071C67.2628 14.4071 66.733 14.5573 66.2741 14.8409C65.8329 15.152 65.4898 15.5603 65.2054 16.0562C64.9462 16.603 64.8186 17.2021 64.8329 17.8062C64.7947 18.3804 64.9074 18.9546 65.16 19.4726C65.4126 19.9907 65.7965 20.4349 66.2741 20.7617C66.7348 21.0437 67.2349 21.1992 67.8035 21.1992ZM75.1662 23.6589V11.9145H78.0388L78.1368 13.4409C78.4978 12.8558 79.0098 12.3769 79.62 12.0539C80.2302 11.7308 80.9163 11.5753 81.6074 11.6034C82.3977 11.5898 83.1745 11.8077 83.8406 12.2296C84.5067 12.6515 85.0326 13.2588 85.3525 13.9756C85.6956 14.7145 85.8819 15.6284 85.8819 16.6492V23.6881H82.7545V17.0575C82.7545 16.2409 82.5682 15.5992 82.1956 15.1228C81.8231 14.6562 81.3133 14.4034 80.6662 14.4034C80.1956 14.4034 79.7839 14.5006 79.4211 14.7145C79.078 14.9381 78.7937 15.22 78.578 15.6187C78.3599 16.0216 78.2518 16.474 78.2643 16.9312V23.6589H75.1662V23.6589ZM87.4407 23.6589V7.09227H90.5682V13.4117C90.9918 12.8447 91.5429 12.3834 92.1776 12.0644C92.8124 11.7454 93.5134 11.5776 94.225 11.5742C94.9638 11.5635 95.6955 11.7179 96.3659 12.0259C97.0363 12.3339 97.6282 12.7876 98.0976 13.3534C99.1472 14.5614 99.7033 16.115 99.6564 17.7089C99.6734 19.3393 99.0954 20.9208 98.029 22.1617C97.536 22.7347 96.9224 23.1936 96.2313 23.506C95.5402 23.8185 94.7885 23.9769 94.029 23.97C93.3143 23.9894 92.6065 23.8283 91.9719 23.5018C91.3373 23.1752 90.7969 22.694 90.4015 22.1034L90.3133 23.6298L87.4407 23.6589V23.6589ZM93.4996 21.1992C94.0682 21.1992 94.5682 21.0437 95.029 20.7617C95.4701 20.4506 95.8133 20.0423 96.0976 19.5464C96.3427 19.0506 96.4701 18.4575 96.4701 17.7964C96.5084 17.2222 96.3957 16.648 96.143 16.13C95.8904 15.6119 95.5066 15.1677 95.029 14.8409C94.5701 14.5573 94.0402 14.4071 93.4996 14.4071C92.9589 14.4071 92.429 14.5573 91.9701 14.8409C91.5388 15.152 91.1858 15.5603 90.9113 16.0562C90.6377 16.5981 90.5094 17.2008 90.5388 17.8062C90.5006 18.3804 90.6133 18.9546 90.8659 19.4726C91.1185 19.9907 91.5024 20.4349 91.9799 20.7617C92.4407 21.0437 92.9113 21.1992 93.4996 21.1992Z" fill="#727272"/>
</g>
<defs>
<clipPath id="clip0_174_199">
<rect width="100" height="31.1111" fill="white" transform="translate(0 0.549927)"/>
</clipPath>
</defs>
</svg>
