<svg width="100" height="31" viewBox="0 0 100 31" fill="none" xmlns="http://www.w3.org/2000/svg">
<g clip-path="url(#clip0_174_200)">
<path d="M74.3638 29.7632L82.7033 20.5266L74.3638 11.2888H83.1629L87.2933 15.7759L91.2707 11.2888H99.7629L91.4629 20.4885L99.8768 29.7632H91.0416L86.9485 25.2392L82.8942 29.7632H74.3638Z" fill="#727272"/>
<path d="M74.3637 7.14744H64.9185V11.2887H74.3637V17.53H64.9185V23.2587H74.3637V29.7632H57.9763V0.661011H74.3637V7.14744Z" fill="#727272"/>
<path d="M51.0635 0.661011V12.571H50.9874C49.457 10.837 47.5448 10.2344 45.3261 10.2344C40.7813 10.2344 37.3578 13.2799 36.1561 17.3063C34.7857 12.8697 31.2513 10.1513 26.0104 10.1513C21.7543 10.1513 18.3935 12.0344 16.6396 15.103V11.2892H7.84217V7.1483H17.4426V0.661011H0V29.7636H7.84217V17.53H15.6587C15.4257 18.4287 15.3013 19.3909 15.3013 20.4062C15.3013 26.4769 20.0061 30.7364 26.0104 30.7364C31.0596 30.7364 34.387 28.3999 36.147 24.1399H29.4265C28.5174 25.4196 27.8278 25.7997 26.0104 25.7997C23.903 25.7997 22.0861 23.9873 22.0861 21.8389H35.7704C36.3639 26.6607 40.1743 30.8192 45.4035 30.8192C47.6591 30.8192 49.7244 29.7254 50.9874 27.8787H51.0635V29.7627H57.9765V0.661011H51.0635ZM22.3043 17.617C22.7404 15.7686 24.1948 14.5604 26.0104 14.5604C28.0091 14.5604 29.3896 15.7313 29.7526 17.617C29.9057 17.617 22.3043 17.617 22.3043 17.617ZM46.8683 25.3322C44.32 25.3322 42.7365 22.9917 42.7365 20.548C42.7365 17.9359 44.1139 15.424 46.8683 15.424C49.7243 15.424 50.8622 17.9359 50.8622 20.548C50.8617 23.0252 49.6561 25.3322 46.8683 25.3322Z" fill="#727272"/>
</g>
<defs>
<clipPath id="clip0_174_200">
<rect width="100" height="30" fill="white" transform="translate(0 0.661011)"/>
</clipPath>
</defs>
</svg>
