<svg width="100" height="30" viewBox="0 0 100 30" fill="none" xmlns="http://www.w3.org/2000/svg">
<path fill-rule="evenodd" clip-rule="evenodd" d="M15.0004 0.661011C6.71728 0.661011 0 7.37653 0 15.6614C0 22.2887 4.2979 27.9116 10.2582 29.8949C11.0078 30.0338 11.2831 29.5694 11.2831 29.1731C11.2831 28.8156 11.269 27.6338 11.2627 26.3807C7.08925 27.2879 6.20887 24.6108 6.20887 24.6108C5.52663 22.8768 4.5433 22.4157 4.5433 22.4157C3.18235 21.4849 4.64554 21.5039 4.64554 21.5039C6.1521 21.6097 6.9454 23.0499 6.9454 23.0499C8.28307 25.3431 10.4546 24.6799 11.3103 24.2967C11.4453 23.3271 11.8339 22.6649 12.263 22.2905C8.93111 21.9115 5.42862 20.6249 5.42862 14.8772C5.42862 13.2395 6.0146 11.9015 6.97431 10.8508C6.81847 10.4729 6.30512 8.9469 7.11957 6.88081C7.11957 6.88081 8.37897 6.47817 11.2447 8.4191C12.4417 8.08662 13.7251 7.91985 14.9996 7.91421C16.2746 7.9202 17.5586 8.08697 18.7574 8.4191C21.6203 6.47852 22.8783 6.88116 22.8783 6.88116C23.6949 8.94726 23.1815 10.4729 23.0257 10.8512C23.9875 11.9011 24.5693 13.2395 24.5693 14.8776C24.5693 20.6387 21.0601 21.9073 17.7198 22.2782C18.2578 22.7436 18.7373 23.6567 18.7373 25.0565C18.7373 27.0633 18.7204 28.6785 18.7204 29.1724C18.7204 29.5708 18.9905 30.0391 19.7506 29.8917C25.7077 27.906 30 22.2852 30 15.66C30.0007 7.37688 23.2848 0.661011 15.0004 0.661011Z" fill="#727272"/>
<path d="M5.6814 22.1977C5.6479 22.2725 5.5305 22.2947 5.42402 22.2436C5.31472 22.1942 5.25408 22.093 5.28933 22.0179C5.32107 21.9418 5.43883 21.9202 5.54777 21.9714C5.65707 22.0207 5.71877 22.123 5.6814 22.1977ZM6.28889 22.8761C6.21731 22.942 6.07734 22.9113 5.98215 22.8063C5.88413 22.7016 5.8658 22.5616 5.93843 22.4946C6.01176 22.4283 6.1475 22.4593 6.24517 22.5641C6.34389 22.6698 6.36328 22.8084 6.28853 22.8757L6.28889 22.8761ZM6.88016 23.7392C6.78849 23.8034 6.63794 23.7434 6.54521 23.6098C6.45284 23.4769 6.45284 23.3172 6.54697 23.2526C6.64005 23.1885 6.78813 23.2463 6.88192 23.3785C6.97429 23.5142 6.9743 23.6743 6.88016 23.7392ZM7.69038 24.5741C7.60823 24.6647 7.433 24.6404 7.30501 24.5166C7.17385 24.3957 7.13754 24.224 7.21969 24.1334C7.30325 24.0428 7.47918 24.0681 7.60823 24.1908C7.73868 24.3114 7.77817 24.4838 7.69038 24.5741ZM8.80875 25.0585C8.77208 25.1763 8.60355 25.2295 8.43361 25.1798C8.26367 25.1283 8.15296 24.9908 8.1868 24.8724C8.22206 24.7539 8.392 24.6985 8.563 24.7518C8.73224 24.8026 8.84365 24.9387 8.80875 25.0585ZM10.0357 25.1484C10.0403 25.2718 9.89609 25.3748 9.71769 25.3769C9.53858 25.3811 9.39332 25.281 9.3912 25.159C9.3912 25.0342 9.53224 24.9327 9.71134 24.9298C9.88975 24.9263 10.0357 25.0257 10.0357 25.1484ZM11.1781 24.9542C11.1992 25.0747 11.0758 25.1989 10.8985 25.2316C10.7243 25.2641 10.5635 25.1893 10.541 25.0695C10.5198 24.9461 10.6457 24.8227 10.8195 24.7902C10.9968 24.7592 11.1555 24.8315 11.1781 24.9542Z" fill="#727272"/>
<path d="M51.5563 14.1227H46.5148C46.4524 14.1227 46.3924 14.1475 46.3483 14.1917C46.3041 14.2359 46.2793 14.2958 46.2793 14.3583V16.8234C46.2793 16.8859 46.3041 16.9458 46.3483 16.99C46.3924 17.0342 46.4524 17.059 46.5148 17.059H48.481V20.1216C48.481 20.1216 48.0395 20.2724 46.8178 20.2724C45.3779 20.2724 43.3656 19.7466 43.3656 15.3214C43.3656 10.8957 45.4613 10.3128 47.4289 10.3128C49.1317 10.3128 49.8649 10.6125 50.3323 10.7571C50.4783 10.8014 50.615 10.6554 50.615 10.5253L51.1771 8.14357C51.178 8.10791 51.1702 8.07256 51.1545 8.04055C51.1387 8.00855 51.1154 7.98084 51.0866 7.95981C50.8967 7.82412 49.7405 7.17767 46.8187 7.17767C43.4527 7.17767 40 8.60908 40 15.4938C40 22.3776 43.9531 23.4033 47.2843 23.4033C50.0425 23.4033 51.7156 22.2244 51.7156 22.2244C51.7844 22.1867 51.7919 22.0902 51.7919 22.0454V14.3578C51.7919 14.2953 51.7671 14.2354 51.7229 14.1912C51.6788 14.147 51.6188 14.1227 51.5563 14.1227ZM77.3062 7.76569H74.4669C74.4359 7.76582 74.4053 7.77205 74.3767 7.78403C74.3482 7.79602 74.3222 7.81351 74.3004 7.83553C74.2786 7.85754 74.2614 7.88364 74.2497 7.91232C74.238 7.94101 74.2321 7.97172 74.2323 8.00269L74.2332 13.489H69.808V8.00269C69.8082 7.97176 69.8023 7.94108 69.7906 7.91243C69.7789 7.88378 69.7617 7.8577 69.74 7.83569C69.7183 7.81368 69.6924 7.79618 69.6639 7.78417C69.6354 7.77215 69.6048 7.76588 69.5738 7.76569H66.735C66.7041 7.76582 66.6734 7.77205 66.6448 7.78403C66.6163 7.79602 66.5904 7.81351 66.5686 7.83553C66.5468 7.85754 66.5295 7.88364 66.5178 7.91232C66.5061 7.94101 66.5002 7.97172 66.5004 8.00269V22.8586C66.5004 22.9891 66.6059 23.0956 66.735 23.0956H69.5738C69.6048 23.0954 69.6354 23.0892 69.664 23.0771C69.6925 23.0651 69.7184 23.0475 69.7402 23.0255C69.7619 23.0034 69.7791 22.9773 69.7907 22.9486C69.8024 22.9199 69.8082 22.8891 69.808 22.8582V16.504H74.2332L74.2257 22.8582C74.2257 22.9891 74.3312 23.0956 74.4613 23.0956H77.3062C77.3371 23.0954 77.3678 23.0892 77.3963 23.0771C77.4249 23.0651 77.4508 23.0475 77.4725 23.0255C77.4943 23.0034 77.5114 22.9773 77.5231 22.9486C77.5347 22.9199 77.5406 22.8891 77.5403 22.8582V8.00222C77.5407 7.97127 77.5348 7.94057 77.5232 7.91188C77.5116 7.8832 77.4944 7.8571 77.4726 7.83511C77.4508 7.81312 77.4249 7.79566 77.3963 7.78374C77.3678 7.77183 77.3371 7.76569 77.3062 7.76569ZM55.083 8.10352C54.0729 8.10352 53.253 8.92948 53.253 9.95191C53.253 10.9729 54.0729 11.8013 55.083 11.8013C56.0942 11.8013 56.9135 10.9729 56.9135 9.95191C56.9135 8.92948 56.0937 8.10352 55.083 8.10352ZM56.4758 12.6305H53.646C53.5159 12.6305 53.4 12.7643 53.4 12.8944V22.7192C53.4 23.008 53.58 23.0937 53.8128 23.0937H56.3618C56.6421 23.0937 56.7105 22.9562 56.7105 22.7145V12.8675C56.7106 12.8366 56.7046 12.8059 56.6929 12.7773C56.6812 12.7486 56.6639 12.7226 56.6421 12.7006C56.6203 12.6787 56.5944 12.6612 56.5659 12.6493C56.5374 12.6373 56.5068 12.6306 56.4758 12.6305ZM88.3296 12.6527H85.512C85.4811 12.6529 85.4505 12.6592 85.422 12.6713C85.3935 12.6834 85.3677 12.7009 85.346 12.723C85.3243 12.745 85.3072 12.7711 85.2956 12.7998C85.2839 12.8285 85.2781 12.8592 85.2783 12.8901V20.1744C85.2783 20.1744 84.5622 20.6974 83.5468 20.6974C82.5314 20.6974 82.2619 20.2371 82.2619 19.2424V12.8901C82.2622 12.8591 82.2563 12.8284 82.2447 12.7997C82.233 12.771 82.2158 12.7449 82.1941 12.7228C82.1723 12.7008 82.1464 12.6832 82.1179 12.6712C82.0894 12.6591 82.0587 12.6528 82.0278 12.6527H79.1687C79.1061 12.6532 79.0463 12.6784 79.0023 12.7229C78.9584 12.7674 78.9338 12.8276 78.9341 12.8901V19.723C78.9341 22.6772 80.5808 23.4 82.8457 23.4C84.704 23.4 86.2023 22.3729 86.2023 22.3729C86.2023 22.3729 86.273 22.9147 86.306 22.9783C86.3389 23.0424 86.4223 23.1069 86.5133 23.1069L88.332 23.0989C88.363 23.0988 88.3938 23.0926 88.4224 23.0806C88.4511 23.0686 88.4771 23.051 88.499 23.029C88.5208 23.0069 88.5382 22.9808 88.5499 22.952C88.5617 22.9233 88.5677 22.8925 88.5676 22.8615L88.5662 12.8887C88.5659 12.8262 88.541 12.7663 88.4969 12.7221C88.4528 12.6778 88.3931 12.6527 88.3306 12.6522L88.3296 12.6527ZM96.0295 12.3191C94.4294 12.3191 93.341 13.0329 93.341 13.0329V8.00222C93.3412 7.97128 93.3353 7.94061 93.3236 7.91196C93.3119 7.8833 93.2947 7.85723 93.273 7.83522C93.2512 7.81321 93.2254 7.79571 93.1969 7.78369C93.1683 7.77168 93.1377 7.76541 93.1068 7.76522H90.2605C90.2294 7.76522 90.1987 7.77136 90.17 7.78329C90.1413 7.79522 90.1153 7.8127 90.0934 7.83472C90.0715 7.85675 90.0542 7.88289 90.0424 7.91163C90.0307 7.94038 90.0247 7.97116 90.0249 8.00222V22.8582C90.0247 22.8892 90.0307 22.92 90.0424 22.9487C90.0542 22.9775 90.0715 23.0036 90.0934 23.0257C90.1153 23.0477 90.1413 23.0652 90.17 23.0771C90.1987 23.089 90.2294 23.0952 90.2605 23.0952H92.2356C92.3251 23.0952 92.392 23.0495 92.4415 22.9689C92.49 22.8888 92.5612 22.2838 92.5612 22.2838C92.5612 22.2838 93.725 23.3863 95.9291 23.3863C98.5158 23.3863 100 22.0746 100 17.4958C100 12.917 97.63 12.3186 96.029 12.3186L96.0295 12.3191ZM94.9175 20.6889C93.9408 20.6592 93.2778 20.2158 93.2778 20.2158V15.5112C93.2778 15.5112 93.9318 15.1107 94.7338 15.0382C95.7482 14.9472 96.7259 15.254 96.7259 17.6739C96.7259 20.2262 96.2853 20.7299 94.918 20.6884L94.9175 20.6889ZM64.9093 20.6333C64.7853 20.6333 64.4678 20.6837 64.1413 20.6837C63.0953 20.6837 62.7405 20.1975 62.7405 19.568V15.3906H64.8702C64.9013 15.3906 64.932 15.3845 64.9607 15.3725C64.9895 15.3605 65.0155 15.343 65.0374 15.3209C65.0593 15.2989 65.0766 15.2727 65.0883 15.2439C65.1001 15.2151 65.106 15.1842 65.1057 15.1531V12.8652C65.1059 12.8341 65.0999 12.8034 65.0881 12.7747C65.0763 12.746 65.059 12.7199 65.0371 12.698C65.0152 12.676 64.9892 12.6585 64.9605 12.6466C64.9319 12.6347 64.9012 12.6286 64.8702 12.6286H62.7405L62.7372 9.81575C62.7372 9.70879 62.6825 9.65555 62.5591 9.65555H59.6567C59.5445 9.65555 59.4838 9.70549 59.4838 9.81339V12.7205C59.4838 12.7205 58.0293 13.0715 57.9313 13.0998C57.8823 13.1141 57.8393 13.1438 57.8088 13.1846C57.7782 13.2254 57.7616 13.275 57.7616 13.326V15.1527C57.7615 15.1836 57.7674 15.2143 57.779 15.2429C57.7907 15.2716 57.8079 15.2977 57.8296 15.3197C57.8514 15.3417 57.8772 15.3592 57.9058 15.3712C57.9343 15.3832 57.9649 15.3895 57.9958 15.3897H59.4838V19.7847C59.4838 23.0499 61.7736 23.3703 63.3191 23.3703C64.0244 23.3703 64.8692 23.1442 65.0087 23.0923C65.0935 23.0608 65.142 22.9736 65.142 22.8789L65.1439 20.8694C65.1429 20.8071 65.1178 20.7476 65.0739 20.7035C65.0299 20.6594 64.9706 20.634 64.9083 20.6328L64.9093 20.6333Z" fill="#727272"/>
</svg>
