<svg width="100" height="29" viewBox="0 0 100 29" fill="none" xmlns="http://www.w3.org/2000/svg">
<path d="M91.9906 10.3339C91.7472 10.3339 91.5105 10.3842 91.3009 10.5028L84.671 14.3315C84.242 14.5788 83.9812 15.0456 83.9812 15.5423V23.1858C83.9812 23.6822 84.242 24.1484 84.671 24.3963L86.4025 25.3958C87.2437 25.8104 87.5538 25.8039 87.9367 25.8039C89.1821 25.8039 89.8933 25.0481 89.8933 23.7348V16.1897C89.8933 16.0831 89.801 16.0068 89.6963 16.0068H88.8658C88.7594 16.0068 88.6688 16.0831 88.6688 16.1897V23.7348C88.6688 24.3168 88.0623 24.9024 87.0782 24.4103L85.2763 23.3547C85.2126 23.32 85.1637 23.2588 85.1637 23.1858V15.5421C85.1637 15.4697 85.212 15.396 85.2763 15.3592L91.8922 11.5448C91.9221 11.5273 91.9561 11.5181 91.9907 11.5181C92.0253 11.5181 92.0593 11.5273 92.0892 11.5448L98.7052 15.3594C98.7682 15.3973 98.8179 15.4676 98.8179 15.5425V23.186C98.8179 23.259 98.7811 23.3337 98.7193 23.3689L92.0892 27.1836C92.0324 27.2174 91.9542 27.2174 91.8922 27.1836L90.1889 26.1701C90.163 26.1561 90.134 26.1487 90.1045 26.1487C90.075 26.1487 90.046 26.1561 90.0201 26.1701C89.5499 26.4366 89.4615 26.4675 89.0205 26.6205C88.912 26.6585 88.747 26.7174 89.0769 26.9022L91.3009 28.2111C91.5106 28.3321 91.7487 28.3953 91.9908 28.3942C92.2328 28.3957 92.4709 28.3326 92.6804 28.2113L99.3105 24.3965C99.7396 24.147 100 23.6824 100 23.186V15.5423C100 15.0458 99.7396 14.5797 99.3105 14.3319L92.6804 10.5032C92.4726 10.3844 92.2344 10.3341 91.9908 10.3341L91.9906 10.3339Z" fill="#727272"/>
<path d="M93.7638 15.7959C91.8759 15.7959 90.7516 16.5994 90.7516 17.9356C90.7516 19.3849 91.8675 19.7833 93.6795 19.9625C95.8472 20.1748 96.0161 20.4931 96.0161 20.9198C96.0161 21.6599 95.426 21.9754 94.0315 21.9754C92.2791 21.9754 91.8941 21.538 91.7652 20.6664C91.7499 20.5729 91.6777 20.4974 91.582 20.4974H90.7234C90.6177 20.4974 90.5264 20.5885 90.5264 20.6946C90.5264 21.8103 91.1333 23.1297 94.0315 23.1297C96.1294 23.1297 97.3394 22.3063 97.3394 20.8634C97.3394 19.4333 96.362 19.0492 94.3269 18.7802C92.2707 18.5081 92.0747 18.3748 92.0747 17.8934C92.0747 17.4958 92.241 16.9641 93.7638 16.9641C95.1243 16.9641 95.6271 17.2575 95.8332 18.1749C95.8511 18.261 95.9271 18.3297 96.0161 18.3297H96.8749C96.9278 18.3297 96.979 18.2972 97.0156 18.2592C97.0516 18.2187 97.077 18.1731 97.072 18.1186C96.9389 16.5389 95.8856 15.7959 93.7638 15.7959Z" fill="#727272"/>
<path d="M53.0119 0.311553C52.9378 0.311602 52.8649 0.330954 52.8006 0.367702C52.7366 0.405123 52.6835 0.458559 52.6465 0.522745C52.6095 0.586932 52.5898 0.659654 52.5895 0.733748V11.5023C52.5895 11.6079 52.5404 11.7026 52.4488 11.7556C52.4039 11.7818 52.3529 11.7955 52.301 11.7955C52.2491 11.7955 52.1981 11.7818 52.1532 11.7556L50.3936 10.7422C50.2653 10.6679 50.1196 10.6288 49.9713 10.6288C49.823 10.6288 49.6774 10.6679 49.549 10.7422L42.5249 14.7961C42.2623 14.9477 42.1027 15.239 42.1027 15.5423V23.6503C42.1027 23.9531 42.2625 24.2305 42.5249 24.3821L49.549 28.4362C49.6773 28.5107 49.823 28.5499 49.9713 28.5499C50.1196 28.5499 50.2653 28.5107 50.3936 28.4362L57.4177 24.3821C57.5463 24.3081 57.6531 24.2015 57.7273 24.073C57.8015 23.9444 57.8404 23.7986 57.8401 23.6503V3.43654C57.8399 3.28468 57.7994 3.1356 57.7228 3.00451C57.6462 2.87341 57.5361 2.76501 57.4038 2.69036L53.223 0.353616C53.1574 0.317031 53.0847 0.310575 53.0119 0.311553ZM7.82646 10.4325C7.69264 10.4378 7.56664 10.4613 7.44652 10.5309L0.422199 14.585C0.293527 14.6589 0.186698 14.7656 0.11255 14.8941C0.0384018 15.0226 -0.000426902 15.1685 3.54023e-06 15.3169L0.0140898 26.1983C0.0140898 26.3495 0.0921508 26.4902 0.225187 26.5641C0.288968 26.6025 0.361974 26.6227 0.436383 26.6227C0.510791 26.6227 0.583797 26.6025 0.647578 26.5641L4.81416 24.1712C5.07808 24.0143 5.25044 23.7416 5.25044 23.4392V18.3576C5.25044 18.0543 5.40989 17.7761 5.67283 17.6255L7.44633 16.5979C7.57455 16.5234 7.72039 16.4845 7.86872 16.4853C8.01349 16.4853 8.16218 16.5215 8.29091 16.5979L10.0646 17.6255C10.1934 17.6993 10.3003 17.806 10.3745 17.9345C10.4487 18.0631 10.4875 18.2091 10.487 18.3576V23.439C10.487 23.7414 10.6611 24.0161 10.9233 24.171L15.0899 26.5641C15.1536 26.6025 15.2266 26.6227 15.301 26.6227C15.3755 26.6227 15.4485 26.6025 15.5122 26.5641C15.5764 26.527 15.6298 26.4736 15.6668 26.4094C15.7039 26.3451 15.7235 26.2723 15.7235 26.1981L15.7372 15.3169C15.7381 15.1684 15.6994 15.0224 15.6252 14.8938C15.551 14.7652 15.444 14.6586 15.315 14.585L8.29091 10.5309C8.17216 10.4613 8.04577 10.438 7.91097 10.4325H7.82646ZM70.9452 10.5309C70.7985 10.5309 70.6547 10.5681 70.523 10.6436L63.4989 14.6977C63.3702 14.7717 63.2634 14.8783 63.1893 15.0068C63.1151 15.1354 63.0762 15.2812 63.0765 15.4296V23.5376C63.0765 23.8426 63.2483 24.1188 63.5128 24.2697L70.4807 28.2392C70.738 28.386 71.0522 28.3971 71.3112 28.2529L75.5342 25.9023C75.6682 25.8279 75.7588 25.689 75.7594 25.5364C75.7601 25.4621 75.7409 25.389 75.7037 25.3246C75.6666 25.2602 75.6129 25.207 75.5483 25.1704L68.4819 21.1163C68.3496 21.0408 68.2567 20.888 68.2567 20.7362V18.2026C68.2567 18.051 68.3506 17.9121 68.4819 17.8366L70.6778 16.5696C70.7419 16.5324 70.8148 16.5129 70.8889 16.5129C70.9631 16.5129 71.036 16.5324 71.1001 16.5696L73.2958 17.8366C73.3602 17.8735 73.4136 17.9268 73.4507 17.9911C73.4878 18.0553 73.5073 18.1282 73.5071 18.2024V20.2013C73.5069 20.2755 73.5263 20.3484 73.5634 20.4126C73.6005 20.4769 73.6539 20.5302 73.7182 20.5671C73.8499 20.6432 74.0091 20.6434 74.1404 20.5671L78.3494 18.1183C78.4778 18.044 78.5845 17.9372 78.6586 17.8088C78.7327 17.6803 78.7718 17.5345 78.7718 17.3862V15.4298C78.7718 15.1275 78.6114 14.8495 78.3494 14.6977L71.3676 10.6436C71.2392 10.5693 71.0935 10.5303 70.9452 10.5309ZM49.943 16.5839C49.9798 16.5839 50.0229 16.5929 50.0557 16.6118L52.4629 18.0054C52.5283 18.0432 52.5756 18.113 52.5756 18.1883V20.9754C52.5756 21.0511 52.5286 21.1208 52.4629 21.1586L50.0557 22.5521C50.0236 22.5705 49.9872 22.5801 49.9502 22.5801C49.9132 22.5801 49.8768 22.5705 49.8446 22.5521L47.4377 21.1586C47.3721 21.1206 47.325 21.0511 47.325 20.9754V18.1883C47.325 18.1128 47.3723 18.0435 47.4377 18.0054L49.8446 16.612C49.8742 16.5936 49.9084 16.5839 49.9432 16.5841L49.943 16.5839Z" fill="#727272"/>
<path d="M28.928 10.4883C28.7817 10.4883 28.6369 10.5255 28.5058 10.601L21.4817 14.641C21.219 14.7923 21.0593 15.0842 21.0593 15.387V23.495C21.0593 23.7982 21.2192 24.0753 21.4817 24.2271L28.5058 28.281C28.6341 28.3555 28.7798 28.3948 28.9281 28.3948C29.0765 28.3948 29.2222 28.3555 29.3504 28.281L36.3746 24.2271C36.5031 24.153 36.6099 24.0463 36.684 23.9178C36.7582 23.7892 36.7971 23.6434 36.7968 23.495V15.387C36.7968 15.0838 36.6371 14.7923 36.3746 14.641L29.3504 10.601C29.222 10.5269 29.0763 10.488 28.928 10.4883ZM70.9321 17.7238C70.9042 17.7238 70.873 17.7238 70.8478 17.7379L69.4965 18.5261C69.4713 18.5401 69.4502 18.5605 69.4354 18.5852C69.4206 18.6099 69.4125 18.6381 69.412 18.667V20.2153C69.412 20.2736 69.4456 20.327 69.4965 20.3561L70.8478 21.1303C70.8985 21.1596 70.9525 21.1596 71.0026 21.1303L72.3539 20.3559C72.379 20.3419 72.4 20.3215 72.4148 20.2968C72.4296 20.2721 72.4377 20.244 72.4384 20.2153V18.6668C72.4377 18.638 72.4296 18.6099 72.4148 18.5852C72.4 18.5605 72.379 18.5402 72.3539 18.5261L71.0026 17.7377C70.9775 17.723 70.9603 17.7238 70.9321 17.7238Z" fill="#727272"/>
</svg>
