<svg width="100" height="22" viewBox="0 0 100 22" fill="none" xmlns="http://www.w3.org/2000/svg">
<g clip-path="url(#clip0_174_192)">
<path d="M35.298 12.2748L34.7019 13.9599H34.6523C34.5529 13.5799 34.3708 13.0017 34.0728 12.3078L30.8774 4.29539H27.7483V17.0658H29.8178V9.18546C29.8178 8.68985 29.8178 8.12815 29.8013 7.43429C29.7847 7.08736 29.7516 6.82303 29.735 6.62478H29.7847C29.8841 7.1204 29.9999 7.48385 30.0827 7.71514L33.9238 17.0327H35.3807L39.1887 7.63254C39.2715 7.41777 39.3542 6.98823 39.437 6.62478H39.4867C39.437 7.56645 39.4039 8.409 39.3874 8.92114V17.0162H41.5893V4.26235H38.5761L35.298 12.2748V12.2748ZM43.6754 7.86382H45.8278V17.0162H43.6754V7.86382ZM44.7682 3.99802C44.4039 3.99802 44.1059 4.13018 43.8576 4.36147C43.6092 4.59276 43.4768 4.89013 43.4768 5.25358C43.4768 5.60051 43.6092 5.89788 43.8576 6.12917C44.1059 6.36045 44.4039 6.4761 44.7682 6.4761C45.1324 6.4761 45.447 6.34393 45.6788 6.12917C45.9271 5.89788 46.0595 5.60051 46.0595 5.25358C46.0595 4.90665 45.9271 4.60928 45.6788 4.36147C45.4635 4.13018 45.1489 3.99802 44.7682 3.99802V3.99802ZM53.4602 7.78122C53.0629 7.69862 52.649 7.64906 52.2516 7.64906C51.2748 7.64906 50.3807 7.86382 49.6357 8.29336C48.8907 8.72289 48.2946 9.31763 47.9138 10.0611C47.5165 10.821 47.3178 11.6966 47.3178 12.7043C47.3178 13.5799 47.5165 14.3564 47.8973 15.0668C48.2781 15.7606 48.8079 16.3223 49.5198 16.7023C50.1986 17.0823 50.9933 17.2805 51.8874 17.2805C52.9138 17.2805 53.7913 17.0658 54.4867 16.6693L54.5033 16.6527V14.6703L54.4205 14.7364C54.1059 14.9676 53.7417 15.1659 53.3774 15.2815C52.9966 15.4137 52.649 15.4798 52.3509 15.4798C51.49 15.4798 50.8112 15.232 50.3311 14.6868C49.8344 14.1581 49.586 13.4312 49.586 12.5226C49.586 11.5809 49.8344 10.8375 50.3476 10.2923C50.8609 9.74716 51.5397 9.46631 52.3675 9.46631C53.0629 9.46631 53.7748 9.6976 54.4205 10.1602L54.5033 10.2263V8.12815L54.4867 8.11163C54.2052 7.99599 53.8907 7.86382 53.4602 7.78122V7.78122ZM60.5629 7.71514C60.0331 7.71514 59.5364 7.88034 59.1059 8.22727C58.7417 8.52464 58.4933 8.95418 58.2781 9.46631H58.2615V7.86382H56.1092V17.0162H58.2615V12.3409C58.2615 11.5479 58.4271 10.8871 58.7913 10.408C59.1556 9.91237 59.6191 9.66456 60.1821 9.66456C60.3807 9.66456 60.5794 9.71412 60.8278 9.74716C61.0595 9.81324 61.2251 9.87933 61.341 9.96193L61.4238 10.028V7.88034L61.3741 7.86382C61.2251 7.7647 60.9271 7.71514 60.5629 7.71514V7.71514ZM66.4238 7.66558C64.9172 7.66558 63.7086 8.11163 62.8642 8.98722C62.0033 9.86281 61.5893 11.0688 61.5893 12.5887C61.5893 14.0095 62.0198 15.1659 62.8476 16.0084C63.6754 16.8345 64.8013 17.264 66.2086 17.264C67.6821 17.264 68.8576 16.8179 69.7019 15.9258C70.5629 15.0337 70.9768 13.8443 70.9768 12.3739C70.9768 10.9201 70.5794 9.76368 69.7682 8.92114C68.99 8.07859 67.8476 7.66558 66.4238 7.66558V7.66558ZM68.1456 14.7033C67.7483 15.2155 67.1191 15.4633 66.341 15.4633C65.5629 15.4633 64.9337 15.2155 64.4867 14.6703C64.0397 14.1581 63.8244 13.4147 63.8244 12.473C63.8244 11.4983 64.0562 10.7549 64.4867 10.2263C64.9337 9.6976 65.5463 9.43327 66.3244 9.43327C67.086 9.43327 67.6821 9.68108 68.1125 10.1932C68.543 10.7054 68.7748 11.4488 68.7748 12.4235C68.7417 13.4147 68.5595 14.1912 68.1456 14.7033V14.7033ZM75.7781 11.6635C75.0993 11.3827 74.6688 11.1679 74.4701 10.9862C74.3046 10.821 74.2218 10.5897 74.2218 10.2923C74.2218 10.0445 74.3211 9.79672 74.5695 9.63152C74.8178 9.46631 75.0993 9.38371 75.5132 9.38371C75.8774 9.38371 76.2582 9.44979 76.6225 9.54892C76.9867 9.64804 77.3178 9.79672 77.5827 9.99497L77.6655 10.0611V8.04555L77.6158 8.02903C77.3675 7.9299 77.0364 7.83078 76.639 7.74818C76.2417 7.6821 75.8774 7.64906 75.5794 7.64906C74.5529 7.64906 73.7086 7.89686 73.0463 8.44204C72.384 8.95418 72.0695 9.64804 72.0695 10.4575C72.0695 10.8871 72.1357 11.2671 72.2847 11.5809C72.4337 11.8948 72.6489 12.1922 72.947 12.44C73.245 12.6713 73.6754 12.9356 74.2715 13.1834C74.7682 13.3982 75.1489 13.5634 75.3807 13.6956C75.6125 13.8277 75.7615 13.9764 75.8774 14.0921C75.9602 14.2242 76.0099 14.3894 76.0099 14.6042C76.0099 15.2155 75.5463 15.5128 74.6026 15.5128C74.2384 15.5128 73.8576 15.4467 73.4105 15.2981C72.9635 15.1494 72.5496 14.9346 72.2019 14.6868L72.1191 14.6207V16.7188L72.1688 16.7353C72.4834 16.884 72.8642 16.9832 73.3278 17.0988C73.7913 17.1814 74.2052 17.2475 74.5695 17.2475C75.6787 17.2475 76.5893 16.9997 77.235 16.4545C77.8973 15.9258 78.245 15.2485 78.245 14.3729C78.245 13.7617 78.0794 13.2165 77.7152 12.8035C77.235 12.407 76.639 11.994 75.7781 11.6635V11.6635ZM83.9238 7.66558C82.4172 7.66558 81.2085 8.11163 80.3642 8.98722C79.5198 9.86281 79.0893 11.0688 79.0893 12.5887C79.0893 14.0095 79.5198 15.1659 80.3476 16.0084C81.1754 16.8345 82.3013 17.264 83.7086 17.264C85.1821 17.264 86.3576 16.8179 87.2019 15.9258C88.0629 15.0337 88.4768 13.8443 88.4768 12.3739C88.4768 10.9201 88.0794 9.76368 87.2681 8.92114C86.49 8.07859 85.3476 7.66558 83.9238 7.66558V7.66558ZM85.6291 14.7033C85.2317 15.2155 84.6026 15.4633 83.8244 15.4633C83.0297 15.4633 82.4172 15.2155 81.9701 14.6703C81.5231 14.1581 81.3079 13.4147 81.3079 12.473C81.3079 11.4983 81.5397 10.7549 81.9701 10.2263C82.4172 9.6976 83.0297 9.43327 83.8079 9.43327C84.5529 9.43327 85.1655 9.68108 85.596 10.1932C86.0264 10.7054 86.2582 11.4488 86.2582 12.4235C86.2582 13.4147 86.043 14.1912 85.6291 14.7033V14.7033ZM99.9834 9.63152V7.86382H97.8145V5.15446L97.7483 5.17098L95.6953 5.78224L95.6456 5.79876V7.86382H92.4006V6.70739C92.4006 6.17873 92.533 5.76572 92.7648 5.50139C92.9966 5.23706 93.3443 5.1049 93.7748 5.1049C94.0728 5.1049 94.3874 5.17098 94.735 5.31966L94.8178 5.36922V3.5024L94.7682 3.48588C94.4701 3.38676 94.0728 3.32068 93.5595 3.32068C92.9138 3.32068 92.3509 3.46936 91.8377 3.71717C91.3244 3.99802 90.9436 4.37799 90.6622 4.89013C90.3807 5.38574 90.2317 5.94744 90.2317 6.59174V7.86382H88.7251V9.615H90.2317V17.0162H92.4006V9.63152H95.6456V14.3399C95.6456 16.2728 96.5562 17.2475 98.3774 17.2475C98.6754 17.2475 98.99 17.1979 99.288 17.1484C99.6026 17.0823 99.8344 16.9997 99.9668 16.9336L99.9834 16.9171V15.1494L99.9006 15.2155C99.7682 15.2981 99.6523 15.3641 99.4536 15.4137C99.288 15.4633 99.139 15.4798 99.0231 15.4798C98.5926 15.4798 98.2946 15.3807 98.0794 15.1329C97.8807 14.9016 97.7814 14.5216 97.7814 13.9599V9.63152H99.9834V9.63152Z" fill="white"/>
<path d="M0 0H10.149V10.1271H0V0Z" fill="#F25022"/>
<path d="M11.2085 0H21.3575V10.1271H11.2085V0Z" fill="#7FBA00"/>
<path d="M0 11.1844H10.149V21.3115H0V11.1844Z" fill="#00A4EF"/>
<path d="M11.2085 11.1844H21.3575V21.3115H11.2085V11.1844Z" fill="#FFB900"/>
</g>
<defs>
<clipPath id="clip0_174_192">
<rect width="100" height="21.3115" fill="white"/>
</clipPath>
</defs>
</svg>
