<svg width="212" height="50" viewBox="0 0 212 50" fill="none" xmlns="http://www.w3.org/2000/svg">
<rect width="31" height="50" rx="4" fill="white"/>
<path d="M6.72301 22L4.22585 13.2727H6.24148L7.68608 19.3366H7.75852L9.35227 13.2727H11.0781L12.6676 19.3494H12.7443L14.1889 13.2727H16.2045L13.7074 22H11.9091L10.2472 16.294H10.179L8.52131 22H6.72301ZM6.26278 37H4.28551L7.2983 28.2727H9.67614L12.6847 37H10.7074L8.52131 30.267H8.45312L6.26278 37ZM6.1392 33.5696H10.8097V35.0099H6.1392V33.5696ZM13.7351 37V28.2727H15.5803V35.4787H19.3217V37H13.7351ZM19.1214 29.794V28.2727H26.2891V29.794H23.6172V37H21.7933V29.794H19.1214Z" fill="#0D0F13"/>
<path d="M44.5384 23.5L40.3764 8.95455H43.7358L46.1435 19.0611H46.2642L48.9205 8.95455H51.7969L54.446 19.0824H54.5739L56.9815 8.95455H60.3409L56.179 23.5H53.1818L50.4119 13.9901H50.2983L47.5355 23.5H44.5384ZM63.869 23.706C63.1729 23.706 62.5527 23.5852 62.0082 23.3438C61.4637 23.0975 61.0328 22.7353 60.7156 22.2571C60.4031 21.7741 60.2468 21.1728 60.2468 20.4531C60.2468 19.8471 60.3581 19.3381 60.5806 18.9261C60.8031 18.5142 61.1062 18.1828 61.4897 17.9318C61.8732 17.6809 62.3088 17.4915 62.7965 17.3636C63.2889 17.2358 63.805 17.1458 64.3448 17.0938C64.9793 17.0275 65.4906 16.9659 65.8789 16.9091C66.2672 16.8475 66.5489 16.7576 66.7241 16.6392C66.8993 16.5208 66.9869 16.3456 66.9869 16.1136V16.071C66.9869 15.6212 66.8448 15.2732 66.5607 15.027C66.2814 14.7808 65.8836 14.6577 65.3675 14.6577C64.823 14.6577 64.3898 14.7784 64.0678 15.0199C63.7459 15.2566 63.5328 15.5549 63.4286 15.9148L60.6303 15.6875C60.7724 15.0246 61.0517 14.4517 61.4684 13.9688C61.8851 13.4811 62.4225 13.107 63.0806 12.8466C63.7435 12.5814 64.5105 12.4489 65.3817 12.4489C65.9878 12.4489 66.5678 12.5199 67.1218 12.6619C67.6805 12.804 68.1753 13.0241 68.6062 13.3224C69.0418 13.6207 69.3851 14.0043 69.636 14.473C69.887 14.937 70.0124 15.4934 70.0124 16.142V23.5H67.1431V21.9872H67.0579C66.8827 22.3281 66.6483 22.6288 66.3548 22.8892C66.0612 23.1449 65.7085 23.3461 65.2965 23.4929C64.8846 23.6349 64.4087 23.706 63.869 23.706ZM64.7354 21.6179C65.1805 21.6179 65.5735 21.5303 65.9144 21.3551C66.2553 21.1752 66.5228 20.9337 66.717 20.6307C66.9111 20.3277 67.0082 19.9844 67.0082 19.6009V18.4432C66.9135 18.5047 66.7833 18.5616 66.6175 18.6136C66.4566 18.661 66.2743 18.706 66.0707 18.7486C65.8671 18.7865 65.6635 18.822 65.4599 18.8551C65.2563 18.8835 65.0716 18.9096 64.9059 18.9332C64.5508 18.9853 64.2406 19.0682 63.9755 19.1818C63.7103 19.2955 63.5044 19.4493 63.3576 19.6435C63.2108 19.8329 63.1374 20.0696 63.1374 20.3537C63.1374 20.7656 63.2866 21.0805 63.5849 21.2983C63.8879 21.5114 64.2714 21.6179 64.7354 21.6179ZM75.3853 8.95455V23.5H72.3597V8.95455H75.3853ZM83.6115 12.5909V14.8636H77.0419V12.5909H83.6115ZM78.5334 9.97727H81.5589V20.1477C81.5589 20.4271 81.6016 20.6449 81.6868 20.8011C81.772 20.9527 81.8904 21.0592 82.0419 21.1207C82.1982 21.1823 82.3781 21.2131 82.5817 21.2131C82.7237 21.2131 82.8658 21.2012 83.0078 21.1776C83.1499 21.1491 83.2588 21.1278 83.3345 21.1136L83.8104 23.3651C83.6589 23.4124 83.4458 23.4669 83.1712 23.5284C82.8965 23.5947 82.5627 23.6349 82.1697 23.6491C81.4406 23.6776 80.8014 23.5805 80.2521 23.358C79.7076 23.1354 79.2839 22.7898 78.9808 22.321C78.6778 21.8523 78.5286 21.2604 78.5334 20.5455V9.97727ZM95.4244 23.5H90.2681V8.95455H95.467C96.93 8.95455 98.1895 9.24574 99.2454 9.82812C100.301 10.4058 101.113 11.2367 101.681 12.321C102.254 13.4053 102.541 14.7027 102.541 16.2131C102.541 17.7282 102.254 19.0303 101.681 20.1193C101.113 21.2083 100.297 22.044 99.2312 22.6264C98.1706 23.2088 96.9016 23.5 95.4244 23.5ZM93.3434 20.8651H95.2965C96.2056 20.8651 96.9703 20.7041 97.5906 20.3821C98.2156 20.0554 98.6843 19.5511 98.9968 18.8693C99.314 18.1828 99.4727 17.2973 99.4727 16.2131C99.4727 15.1383 99.314 14.2599 98.9968 13.5781C98.6843 12.8963 98.2179 12.3944 97.5977 12.0724C96.9774 11.7505 96.2127 11.5895 95.3036 11.5895H93.3434V20.8651ZM109.734 23.7131C108.612 23.7131 107.646 23.4858 106.836 23.0312C106.031 22.572 105.411 21.9233 104.975 21.0852C104.54 20.2424 104.322 19.2457 104.322 18.0952C104.322 16.973 104.54 15.9882 104.975 15.1406C105.411 14.2931 106.024 13.6326 106.815 13.1591C107.61 12.6856 108.543 12.4489 109.613 12.4489C110.333 12.4489 111.003 12.5649 111.623 12.7969C112.248 13.0241 112.792 13.3674 113.256 13.8267C113.725 14.286 114.09 14.8636 114.35 15.5597C114.611 16.2509 114.741 17.0606 114.741 17.9886V18.8196H105.529V16.9446H111.893C111.893 16.509 111.798 16.1231 111.609 15.7869C111.419 15.4508 111.156 15.188 110.82 14.9986C110.489 14.8045 110.103 14.7074 109.663 14.7074C109.203 14.7074 108.796 14.8139 108.441 15.027C108.091 15.2353 107.816 15.517 107.617 15.8722C107.418 16.2225 107.317 16.6132 107.312 17.044V18.8267C107.312 19.3665 107.411 19.8329 107.61 20.2259C107.814 20.6188 108.1 20.9219 108.469 21.1349C108.839 21.348 109.277 21.4545 109.783 21.4545C110.12 21.4545 110.427 21.4072 110.707 21.3125C110.986 21.2178 111.225 21.0758 111.424 20.8864C111.623 20.697 111.774 20.465 111.879 20.1903L114.677 20.375C114.535 21.0473 114.244 21.6345 113.803 22.1364C113.368 22.6335 112.804 23.0218 112.113 23.3011C111.426 23.5758 110.633 23.7131 109.734 23.7131ZM127.225 8.95455H130.265V19.0966C130.265 20.0341 130.054 20.8485 129.632 21.5398C129.216 22.2311 128.636 22.7637 127.892 23.1378C127.149 23.5118 126.285 23.6989 125.3 23.6989C124.424 23.6989 123.629 23.545 122.914 23.2372C122.203 22.9247 121.64 22.4512 121.223 21.8168C120.807 21.1776 120.601 20.375 120.605 19.4091H123.667C123.676 19.7926 123.754 20.1217 123.901 20.3963C124.052 20.6662 124.258 20.8745 124.519 21.0213C124.784 21.1634 125.096 21.2344 125.456 21.2344C125.835 21.2344 126.155 21.1539 126.415 20.9929C126.68 20.8272 126.882 20.5857 127.019 20.2685C127.156 19.9512 127.225 19.5606 127.225 19.0966V8.95455ZM137.722 23.7131C136.6 23.7131 135.634 23.4858 134.824 23.0312C134.019 22.572 133.399 21.9233 132.963 21.0852C132.528 20.2424 132.31 19.2457 132.31 18.0952C132.31 16.973 132.528 15.9882 132.963 15.1406C133.399 14.2931 134.012 13.6326 134.803 13.1591C135.598 12.6856 136.531 12.4489 137.601 12.4489C138.321 12.4489 138.991 12.5649 139.611 12.7969C140.236 13.0241 140.781 13.3674 141.245 13.8267C141.713 14.286 142.078 14.8636 142.338 15.5597C142.599 16.2509 142.729 17.0606 142.729 17.9886V18.8196H133.517V16.9446H139.881C139.881 16.509 139.786 16.1231 139.597 15.7869C139.408 15.4508 139.145 15.188 138.809 14.9986C138.477 14.8045 138.091 14.7074 137.651 14.7074C137.192 14.7074 136.784 14.8139 136.429 15.027C136.079 15.2353 135.804 15.517 135.605 15.8722C135.407 16.2225 135.305 16.6132 135.3 17.044V18.8267C135.3 19.3665 135.4 19.8329 135.598 20.2259C135.802 20.6188 136.088 20.9219 136.458 21.1349C136.827 21.348 137.265 21.4545 137.772 21.4545C138.108 21.4545 138.416 21.4072 138.695 21.3125C138.974 21.2178 139.213 21.0758 139.412 20.8864C139.611 20.697 139.763 20.465 139.867 20.1903L142.665 20.375C142.523 21.0473 142.232 21.6345 141.792 22.1364C141.356 22.6335 140.792 23.0218 140.101 23.3011C139.415 23.5758 138.622 23.7131 137.722 23.7131ZM153.78 15.7017L151.01 15.8722C150.963 15.6354 150.861 15.4223 150.705 15.233C150.549 15.0388 150.343 14.8849 150.087 14.7713C149.836 14.6529 149.535 14.5938 149.185 14.5938C148.716 14.5938 148.321 14.6932 147.999 14.892C147.677 15.0862 147.516 15.3466 147.516 15.6733C147.516 15.9337 147.62 16.1539 147.828 16.3338C148.037 16.5137 148.394 16.6581 148.901 16.767L150.875 17.1648C151.936 17.3826 152.727 17.733 153.248 18.2159C153.768 18.6989 154.029 19.3333 154.029 20.1193C154.029 20.8343 153.818 21.4616 153.397 22.0014C152.98 22.5412 152.407 22.9626 151.678 23.2656C150.953 23.5639 150.118 23.7131 149.171 23.7131C147.727 23.7131 146.576 23.4124 145.719 22.8111C144.867 22.205 144.367 21.3812 144.221 20.3395L147.196 20.1832C147.286 20.6236 147.504 20.9598 147.85 21.1918C148.195 21.419 148.638 21.5327 149.178 21.5327C149.708 21.5327 150.134 21.4309 150.456 21.2273C150.783 21.0189 150.949 20.7514 150.953 20.4247C150.949 20.1501 150.833 19.9252 150.605 19.75C150.378 19.5701 150.028 19.4328 149.554 19.3381L147.665 18.9616C146.6 18.7486 145.807 18.3793 145.286 17.8537C144.77 17.3281 144.512 16.6581 144.512 15.8438C144.512 15.143 144.701 14.5393 145.08 14.0327C145.463 13.526 146.001 13.1354 146.692 12.8608C147.388 12.5862 148.203 12.4489 149.135 12.4489C150.513 12.4489 151.597 12.7401 152.388 13.3224C153.184 13.9048 153.648 14.6979 153.78 15.7017ZM162.93 18.8551V12.5909H165.955V23.5H163.05V21.5185H162.937C162.691 22.1577 162.281 22.6714 161.708 23.0597C161.14 23.4479 160.446 23.642 159.627 23.642C158.898 23.642 158.256 23.4763 157.702 23.1449C157.148 22.8134 156.715 22.3423 156.403 21.7315C156.095 21.1207 155.939 20.3892 155.934 19.5369V12.5909H158.96V18.9972C158.964 19.6411 159.137 20.1501 159.478 20.5241C159.819 20.8982 160.276 21.0852 160.849 21.0852C161.213 21.0852 161.554 21.0024 161.871 20.8366C162.189 20.6662 162.444 20.4152 162.638 20.0838C162.837 19.7524 162.934 19.3428 162.93 18.8551ZM177.452 15.7017L174.682 15.8722C174.635 15.6354 174.533 15.4223 174.377 15.233C174.221 15.0388 174.015 14.8849 173.759 14.7713C173.508 14.6529 173.207 14.5938 172.857 14.5938C172.388 14.5938 171.993 14.6932 171.671 14.892C171.349 15.0862 171.188 15.3466 171.188 15.6733C171.188 15.9337 171.292 16.1539 171.5 16.3338C171.709 16.5137 172.066 16.6581 172.573 16.767L174.547 17.1648C175.608 17.3826 176.399 17.733 176.919 18.2159C177.44 18.6989 177.701 19.3333 177.701 20.1193C177.701 20.8343 177.49 21.4616 177.069 22.0014C176.652 22.5412 176.079 22.9626 175.35 23.2656C174.625 23.5639 173.79 23.7131 172.843 23.7131C171.399 23.7131 170.248 23.4124 169.391 22.8111C168.539 22.205 168.039 21.3812 167.892 20.3395L170.868 20.1832C170.958 20.6236 171.176 20.9598 171.522 21.1918C171.867 21.419 172.31 21.5327 172.85 21.5327C173.38 21.5327 173.806 21.4309 174.128 21.2273C174.455 21.0189 174.621 20.7514 174.625 20.4247C174.621 20.1501 174.505 19.9252 174.277 19.75C174.05 19.5701 173.7 19.4328 173.226 19.3381L171.337 18.9616C170.272 18.7486 169.479 18.3793 168.958 17.8537C168.442 17.3281 168.184 16.6581 168.184 15.8438C168.184 15.143 168.373 14.5393 168.752 14.0327C169.135 13.526 169.673 13.1354 170.364 12.8608C171.06 12.5862 171.874 12.4489 172.807 12.4489C174.185 12.4489 175.269 12.7401 176.06 13.3224C176.855 13.9048 177.319 14.6979 177.452 15.7017Z" fill="white"/>
<path d="M46.5376 35.1172C46.4912 34.683 46.2957 34.3449 45.951 34.103C45.6096 33.861 45.1655 33.7401 44.6186 33.7401C44.2341 33.7401 43.9044 33.7981 43.6293 33.9141C43.3542 34.0301 43.1437 34.1875 42.9979 34.3864C42.852 34.5852 42.7775 34.8123 42.7741 35.0675C42.7741 35.2796 42.8222 35.4635 42.9183 35.6193C43.0178 35.7751 43.152 35.9077 43.321 36.017C43.4901 36.1231 43.6773 36.2126 43.8828 36.2855C44.0883 36.3584 44.2955 36.4197 44.5043 36.4695L45.4588 36.7081C45.8433 36.7976 46.2128 36.9186 46.5675 37.071C46.9254 37.2235 47.2453 37.4157 47.527 37.6477C47.812 37.8797 48.0374 38.1598 48.2031 38.4879C48.3688 38.8161 48.4517 39.2005 48.4517 39.6413C48.4517 40.2379 48.2992 40.7633 47.9943 41.2173C47.6894 41.6681 47.2486 42.0211 46.6719 42.2763C46.0985 42.5282 45.4041 42.6541 44.5888 42.6541C43.7966 42.6541 43.1089 42.5315 42.5256 42.2862C41.9455 42.041 41.4915 41.683 41.1634 41.2124C40.8385 40.7417 40.6629 40.1683 40.6364 39.4922H42.451C42.4775 39.8468 42.5869 40.1418 42.7791 40.3771C42.9714 40.6125 43.2216 40.7881 43.5298 40.9041C43.8414 41.0201 44.1894 41.0781 44.5739 41.0781C44.9749 41.0781 45.3262 41.0185 45.6278 40.8991C45.9328 40.7765 46.1714 40.6075 46.3438 40.392C46.5161 40.1733 46.6039 39.9181 46.6072 39.6264C46.6039 39.3613 46.526 39.1425 46.3736 38.9702C46.2211 38.7945 46.0073 38.6487 45.7322 38.5327C45.4605 38.4134 45.1423 38.3073 44.7777 38.2145L43.6193 37.9162C42.7808 37.7008 42.1179 37.3743 41.6307 36.9368C41.1468 36.496 40.9048 35.911 40.9048 35.1818C40.9048 34.5819 41.0672 34.0566 41.392 33.6058C41.7202 33.1551 42.166 32.8054 42.7294 32.5568C43.2929 32.3049 43.9309 32.179 44.6435 32.179C45.366 32.179 45.9991 32.3049 46.5426 32.5568C47.0895 32.8054 47.5187 33.1518 47.8303 33.5959C48.1418 34.0367 48.3026 34.5438 48.3125 35.1172H46.5376ZM50.0165 42.5V34.8636H51.7615V36.1364H51.8411C51.9803 35.6955 52.2189 35.3558 52.557 35.1172C52.8984 34.8752 53.2878 34.7543 53.7253 34.7543C53.8248 34.7543 53.9358 34.7592 54.0584 34.7692C54.1844 34.7758 54.2888 34.7874 54.3716 34.804V36.4595C54.2954 36.433 54.1744 36.4098 54.0087 36.3899C53.8463 36.3667 53.6889 36.3551 53.5364 36.3551C53.2083 36.3551 52.9133 36.4264 52.6515 36.5689C52.3929 36.7081 52.1891 36.902 52.04 37.1506C51.8908 37.3991 51.8162 37.6858 51.8162 38.0107V42.5H50.0165ZM65.5378 32.3182H67.3823V38.9702C67.3823 39.6993 67.2099 40.3407 66.8652 40.8942C66.5239 41.4477 66.0433 41.8802 65.4235 42.1918C64.8037 42.5 64.0795 42.6541 63.2509 42.6541C62.419 42.6541 61.6931 42.5 61.0733 42.1918C60.4535 41.8802 59.973 41.4477 59.6316 40.8942C59.2902 40.3407 59.1195 39.6993 59.1195 38.9702V32.3182H60.964V38.8161C60.964 39.2403 61.0568 39.6181 61.2424 39.9496C61.4313 40.281 61.6964 40.5412 62.0378 40.7301C62.3792 40.9157 62.7836 41.0085 63.2509 41.0085C63.7182 41.0085 64.1226 40.9157 64.464 40.7301C64.8087 40.5412 65.0738 40.281 65.2594 39.9496C65.445 39.6181 65.5378 39.2403 65.5378 38.8161V32.3182ZM70.9283 32.3182L73.1705 36.0469H73.25L75.5021 32.3182H77.6051L74.468 37.4091L77.6548 42.5H75.517L73.25 38.7962H73.1705L70.9034 42.5H68.7756L71.9922 37.4091L68.8153 32.3182H70.9283ZM85.8269 42.6491C85.0613 42.6491 84.4 42.4901 83.8432 42.1719C83.2897 41.8504 82.8638 41.3963 82.5655 40.8097C82.2672 40.2197 82.1181 39.5253 82.1181 38.7266C82.1181 37.9411 82.2672 37.2517 82.5655 36.6584C82.8671 36.0618 83.2881 35.5978 83.8283 35.2663C84.3685 34.9316 85.0033 34.7642 85.7324 34.7642C86.2031 34.7642 86.6472 34.8404 87.0648 34.9929C87.4857 35.142 87.8569 35.3741 88.1784 35.6889C88.5033 36.0038 88.7585 36.4048 88.9441 36.892C89.1297 37.3759 89.2225 37.9527 89.2225 38.6222V39.174H82.9632V37.9609H87.4973C87.494 37.6162 87.4194 37.3097 87.2736 37.0412C87.1278 36.7694 86.9239 36.5556 86.6621 36.3999C86.4036 36.2441 86.102 36.1662 85.7573 36.1662C85.3894 36.1662 85.0662 36.2557 84.7878 36.4347C84.5094 36.6103 84.2923 36.8423 84.1365 37.1307C83.9841 37.4157 83.9062 37.7289 83.9029 38.0703V39.1293C83.9029 39.5734 83.9841 39.9545 84.1465 40.2727C84.3089 40.5876 84.5359 40.8295 84.8276 40.9986C85.1193 41.1643 85.4606 41.2472 85.8517 41.2472C86.1136 41.2472 86.3506 41.2107 86.5627 41.1378C86.7748 41.0616 86.9587 40.9505 87.1145 40.8047C87.2703 40.6589 87.388 40.4782 87.4675 40.2628L89.1479 40.4517C89.0418 40.8958 88.8397 41.2836 88.5414 41.6151C88.2464 41.9432 87.8685 42.1984 87.4078 42.3807C86.9471 42.5597 86.4202 42.6491 85.8269 42.6491ZM94.2972 42.5V32.3182H98.1154C98.8976 32.3182 99.5539 32.464 100.084 32.7557C100.618 33.0473 101.02 33.4484 101.292 33.9588C101.567 34.4659 101.705 35.0426 101.705 35.6889C101.705 36.3419 101.567 36.9219 101.292 37.429C101.017 37.9361 100.611 38.3355 100.074 38.6271C99.5373 38.9155 98.8761 39.0597 98.0906 39.0597H95.56V37.5433H97.842C98.2994 37.5433 98.6739 37.4638 98.9656 37.3047C99.2572 37.1456 99.4727 36.9268 99.6119 36.6484C99.7544 36.37 99.8256 36.0502 99.8256 35.6889C99.8256 35.3277 99.7544 35.0095 99.6119 34.7344C99.4727 34.4593 99.2556 34.2455 98.9606 34.093C98.6689 33.9373 98.2927 33.8594 97.832 33.8594H96.1417V42.5H94.2972ZM103.227 42.5V34.8636H104.972V36.1364H105.052C105.191 35.6955 105.43 35.3558 105.768 35.1172C106.109 34.8752 106.499 34.7543 106.936 34.7543C107.036 34.7543 107.147 34.7592 107.269 34.7692C107.395 34.7758 107.5 34.7874 107.583 34.804V36.4595C107.506 36.433 107.385 36.4098 107.22 36.3899C107.057 36.3667 106.9 36.3551 106.747 36.3551C106.419 36.3551 106.124 36.4264 105.862 36.5689C105.604 36.7081 105.4 36.902 105.251 37.1506C105.102 37.3991 105.027 37.6858 105.027 38.0107V42.5H103.227ZM111.795 42.6491C111.049 42.6491 110.403 42.4851 109.856 42.157C109.309 41.8288 108.885 41.3698 108.583 40.7798C108.285 40.1899 108.136 39.5005 108.136 38.7116C108.136 37.9228 108.285 37.2318 108.583 36.6385C108.885 36.0452 109.309 35.5845 109.856 35.2564C110.403 34.9283 111.049 34.7642 111.795 34.7642C112.54 34.7642 113.187 34.9283 113.734 35.2564C114.281 35.5845 114.703 36.0452 115.001 36.6385C115.303 37.2318 115.454 37.9228 115.454 38.7116C115.454 39.5005 115.303 40.1899 115.001 40.7798C114.703 41.3698 114.281 41.8288 113.734 42.157C113.187 42.4851 112.54 42.6491 111.795 42.6491ZM111.805 41.2074C112.209 41.2074 112.547 41.0964 112.819 40.8743C113.091 40.6489 113.293 40.3473 113.425 39.9695C113.561 39.5916 113.629 39.1707 113.629 38.7067C113.629 38.2393 113.561 37.8168 113.425 37.4389C113.293 37.0578 113.091 36.7545 112.819 36.5291C112.547 36.3037 112.209 36.1911 111.805 36.1911C111.39 36.1911 111.046 36.3037 110.771 36.5291C110.499 36.7545 110.295 37.0578 110.159 37.4389C110.027 37.8168 109.96 38.2393 109.96 38.7067C109.96 39.1707 110.027 39.5916 110.159 39.9695C110.295 40.3473 110.499 40.6489 110.771 40.8743C111.046 41.0964 111.39 41.2074 111.805 41.2074ZM119.815 42.6342C119.215 42.6342 118.678 42.4801 118.204 42.1719C117.73 41.8636 117.356 41.4162 117.081 40.8295C116.806 40.2429 116.668 39.5303 116.668 38.6918C116.668 37.8433 116.807 37.1274 117.086 36.544C117.367 35.9574 117.747 35.5149 118.224 35.2166C118.702 34.915 119.233 34.7642 119.82 34.7642C120.268 34.7642 120.635 34.8404 120.924 34.9929C121.212 35.142 121.441 35.3227 121.61 35.5348C121.779 35.7436 121.91 35.9408 122.003 36.1264H122.077V32.3182H123.882V42.5H122.112V41.2969H122.003C121.91 41.4825 121.776 41.6797 121.6 41.8885C121.424 42.094 121.192 42.2696 120.904 42.4155C120.616 42.5613 120.253 42.6342 119.815 42.6342ZM120.317 41.1577C120.698 41.1577 121.023 41.0549 121.292 40.8494C121.56 40.6406 121.764 40.3506 121.903 39.9794C122.042 39.6082 122.112 39.1757 122.112 38.6818C122.112 38.188 122.042 37.7588 121.903 37.3942C121.767 37.0296 121.565 36.7462 121.297 36.544C121.032 36.3419 120.705 36.2408 120.317 36.2408C119.916 36.2408 119.581 36.3452 119.313 36.554C119.045 36.7628 118.842 37.0511 118.706 37.419C118.571 37.7869 118.503 38.2079 118.503 38.6818C118.503 39.1591 118.571 39.585 118.706 39.9595C118.846 40.3307 119.05 40.6241 119.318 40.8395C119.59 41.0516 119.923 41.1577 120.317 41.1577ZM130.667 39.2884V34.8636H132.467V42.5H130.722V41.1428H130.642C130.47 41.5703 130.186 41.92 129.792 42.1918C129.401 42.4635 128.919 42.5994 128.345 42.5994C127.845 42.5994 127.402 42.4884 127.018 42.2663C126.637 42.041 126.338 41.7145 126.123 41.2869C125.907 40.8561 125.8 40.3357 125.8 39.7259V34.8636H127.599V39.4474C127.599 39.9313 127.732 40.3158 127.997 40.6009C128.262 40.8859 128.61 41.0284 129.041 41.0284C129.306 41.0284 129.563 40.9638 129.812 40.8345C130.06 40.7053 130.264 40.513 130.423 40.2578C130.586 39.9993 130.667 39.6761 130.667 39.2884ZM137.648 42.6491C136.886 42.6491 136.231 42.4818 135.684 42.147C135.141 41.8123 134.722 41.3499 134.427 40.7599C134.135 40.1667 133.989 39.4839 133.989 38.7116C133.989 37.9361 134.138 37.2517 134.437 36.6584C134.735 36.0618 135.156 35.5978 135.699 35.2663C136.246 34.9316 136.893 34.7642 137.638 34.7642C138.258 34.7642 138.807 34.8786 139.284 35.1072C139.765 35.3326 140.147 35.6525 140.432 36.0668C140.717 36.4777 140.88 36.9583 140.92 37.5085H139.199C139.13 37.1406 138.964 36.834 138.702 36.5888C138.444 36.3402 138.097 36.2159 137.663 36.2159C137.295 36.2159 136.972 36.3153 136.694 36.5142C136.415 36.7098 136.198 36.9915 136.042 37.3594C135.89 37.7273 135.814 38.1681 135.814 38.6818C135.814 39.2022 135.89 39.6496 136.042 40.0241C136.195 40.3954 136.409 40.6821 136.684 40.8842C136.962 41.0831 137.289 41.1825 137.663 41.1825C137.928 41.1825 138.165 41.1328 138.374 41.0334C138.586 40.9306 138.764 40.7831 138.906 40.5909C139.049 40.3987 139.146 40.165 139.199 39.8899H140.92C140.876 40.4302 140.717 40.9091 140.442 41.3267C140.167 41.741 139.793 42.0658 139.319 42.3011C138.845 42.5331 138.288 42.6491 137.648 42.6491ZM146.211 34.8636V36.2557H141.821V34.8636H146.211ZM142.904 33.0341H144.704V40.2031C144.704 40.4451 144.741 40.6307 144.814 40.7599C144.89 40.8859 144.989 40.9721 145.112 41.0185C145.234 41.0649 145.37 41.0881 145.52 41.0881C145.632 41.0881 145.735 41.0798 145.828 41.0632C145.924 41.0466 145.997 41.0317 146.047 41.0185L146.35 42.4254C146.254 42.4586 146.116 42.495 145.937 42.5348C145.761 42.5746 145.546 42.5978 145.291 42.6044C144.84 42.6177 144.434 42.5497 144.073 42.4006C143.712 42.2481 143.425 42.0128 143.213 41.6946C143.004 41.3764 142.901 40.9787 142.904 40.5014V33.0341ZM154.718 42.5H151.268V32.3182H154.788C155.799 32.3182 156.667 32.522 157.393 32.9297C158.122 33.334 158.682 33.9157 159.073 34.6747C159.464 35.4337 159.66 36.3419 159.66 37.3991C159.66 38.4598 159.463 39.3712 159.068 40.1335C158.677 40.8958 158.112 41.4808 157.373 41.8885C156.637 42.2962 155.752 42.5 154.718 42.5ZM153.112 40.9041H154.629C155.338 40.9041 155.93 40.7749 156.404 40.5163C156.878 40.2545 157.234 39.8651 157.472 39.348C157.711 38.8277 157.83 38.178 157.83 37.3991C157.83 36.6203 157.711 35.974 157.472 35.4602C157.234 34.9432 156.881 34.5571 156.414 34.3018C155.95 34.0433 155.373 33.9141 154.683 33.9141H153.112V40.9041ZM164.714 42.6491C163.948 42.6491 163.287 42.4901 162.73 42.1719C162.176 41.8504 161.751 41.3963 161.452 40.8097C161.154 40.2197 161.005 39.5253 161.005 38.7266C161.005 37.9411 161.154 37.2517 161.452 36.6584C161.754 36.0618 162.175 35.5978 162.715 35.2663C163.255 34.9316 163.89 34.7642 164.619 34.7642C165.09 34.7642 165.534 34.8404 165.952 34.9929C166.372 35.142 166.744 35.3741 167.065 35.6889C167.39 36.0038 167.645 36.4048 167.831 36.892C168.016 37.3759 168.109 37.9527 168.109 38.6222V39.174H161.85V37.9609H166.384C166.381 37.6162 166.306 37.3097 166.16 37.0412C166.015 36.7694 165.811 36.5556 165.549 36.3999C165.29 36.2441 164.989 36.1662 164.644 36.1662C164.276 36.1662 163.953 36.2557 163.675 36.4347C163.396 36.6103 163.179 36.8423 163.023 37.1307C162.871 37.4157 162.793 37.7289 162.79 38.0703V39.1293C162.79 39.5734 162.871 39.9545 163.033 40.2727C163.196 40.5876 163.423 40.8295 163.714 40.9986C164.006 41.1643 164.347 41.2472 164.738 41.2472C165 41.2472 165.237 41.2107 165.449 41.1378C165.662 41.0616 165.845 40.9505 166.001 40.8047C166.157 40.6589 166.275 40.4782 166.354 40.2628L168.035 40.4517C167.929 40.8958 167.726 41.2836 167.428 41.6151C167.133 41.9432 166.755 42.1984 166.295 42.3807C165.834 42.5597 165.307 42.6491 164.714 42.6491ZM175.667 36.8821L174.027 37.0611C173.98 36.8954 173.899 36.7396 173.783 36.5938C173.67 36.4479 173.518 36.3303 173.326 36.2408C173.133 36.1513 172.898 36.1065 172.62 36.1065C172.245 36.1065 171.93 36.1877 171.675 36.3501C171.423 36.5125 171.299 36.723 171.302 36.9815C171.299 37.2036 171.38 37.3842 171.546 37.5234C171.715 37.6626 171.993 37.777 172.381 37.8665L173.684 38.1449C174.406 38.3007 174.943 38.5476 175.294 38.8857C175.649 39.2237 175.828 39.6662 175.831 40.2131C175.828 40.6937 175.687 41.1179 175.409 41.4858C175.134 41.8504 174.751 42.1354 174.26 42.3409C173.77 42.5464 173.206 42.6491 172.57 42.6491C171.635 42.6491 170.883 42.4536 170.313 42.0625C169.743 41.6681 169.403 41.1196 169.294 40.4169L171.049 40.2479C171.128 40.5926 171.297 40.8527 171.556 41.0284C171.814 41.2041 172.151 41.2919 172.565 41.2919C172.993 41.2919 173.336 41.2041 173.594 41.0284C173.856 40.8527 173.987 40.6357 173.987 40.3771C173.987 40.1584 173.902 39.9777 173.733 39.8352C173.568 39.6927 173.309 39.5833 172.958 39.5071L171.655 39.2337C170.923 39.0812 170.381 38.8243 170.029 38.4631C169.678 38.0985 169.504 37.6378 169.507 37.081C169.504 36.6103 169.632 36.2027 169.89 35.858C170.152 35.5099 170.515 35.2415 170.979 35.0526C171.446 34.8603 171.985 34.7642 172.595 34.7642C173.49 34.7642 174.194 34.9548 174.708 35.3359C175.225 35.7171 175.545 36.2325 175.667 36.8821ZM177.315 42.5V34.8636H179.115V42.5H177.315ZM178.22 33.7798C177.935 33.7798 177.69 33.6854 177.484 33.4964C177.279 33.3042 177.176 33.0739 177.176 32.8054C177.176 32.5336 177.279 32.3033 177.484 32.1143C177.69 31.9221 177.935 31.826 178.22 31.826C178.509 31.826 178.754 31.9221 178.956 32.1143C179.161 32.3033 179.264 32.5336 179.264 32.8054C179.264 33.0739 179.161 33.3042 178.956 33.4964C178.754 33.6854 178.509 33.7798 178.22 33.7798ZM184.287 45.5227C183.64 45.5227 183.085 45.4349 182.621 45.2592C182.157 45.0869 181.784 44.8549 181.503 44.5632C181.221 44.2715 181.025 43.9484 180.916 43.5938L182.537 43.201C182.61 43.3501 182.716 43.4976 182.855 43.6435C182.994 43.7926 183.181 43.9152 183.417 44.0114C183.655 44.1108 183.955 44.1605 184.317 44.1605C184.827 44.1605 185.25 44.0362 185.584 43.7876C185.919 43.5424 186.086 43.138 186.086 42.5746V41.1278H185.997C185.904 41.3134 185.768 41.504 185.589 41.6996C185.414 41.8951 185.18 42.0592 184.888 42.1918C184.6 42.3243 184.237 42.3906 183.8 42.3906C183.213 42.3906 182.681 42.2531 182.204 41.978C181.73 41.6996 181.352 41.2853 181.07 40.7351C180.792 40.1816 180.653 39.4889 180.653 38.657C180.653 37.8184 180.792 37.1108 181.07 36.5341C181.352 35.9541 181.731 35.5149 182.209 35.2166C182.686 34.915 183.218 34.7642 183.805 34.7642C184.252 34.7642 184.62 34.8404 184.908 34.9929C185.2 35.142 185.432 35.3227 185.604 35.5348C185.777 35.7436 185.907 35.9408 185.997 36.1264H186.096V34.8636H187.871V42.6243C187.871 43.2772 187.715 43.8175 187.404 44.245C187.092 44.6726 186.666 44.9924 186.126 45.2045C185.586 45.4167 184.973 45.5227 184.287 45.5227ZM184.302 40.9787C184.683 40.9787 185.008 40.8859 185.276 40.7003C185.545 40.5147 185.748 40.2479 185.888 39.8999C186.027 39.5518 186.096 39.1342 186.096 38.647C186.096 38.1664 186.027 37.7455 185.888 37.3842C185.752 37.023 185.55 36.7429 185.281 36.544C185.016 36.3419 184.689 36.2408 184.302 36.2408C183.901 36.2408 183.566 36.3452 183.297 36.554C183.029 36.7628 182.827 37.0495 182.691 37.4141C182.555 37.7753 182.487 38.1863 182.487 38.647C182.487 39.1143 182.555 39.5237 182.691 39.875C182.83 40.223 183.034 40.4948 183.302 40.6903C183.574 40.8826 183.907 40.9787 184.302 40.9787ZM191.515 38.0256V42.5H189.716V34.8636H191.436V36.1612H191.525C191.701 35.7337 191.981 35.3939 192.366 35.142C192.753 34.8902 193.232 34.7642 193.802 34.7642C194.329 34.7642 194.788 34.8769 195.18 35.1023C195.574 35.3277 195.879 35.6541 196.094 36.0817C196.313 36.5092 196.421 37.0279 196.417 37.6378V42.5H194.618V37.9162C194.618 37.4058 194.485 37.0064 194.22 36.718C193.958 36.4297 193.595 36.2855 193.131 36.2855C192.816 36.2855 192.536 36.3551 192.291 36.4943C192.049 36.6302 191.858 36.8274 191.719 37.0859C191.583 37.3445 191.515 37.6577 191.515 38.0256ZM201.628 42.6491C200.862 42.6491 200.201 42.4901 199.644 42.1719C199.09 41.8504 198.665 41.3963 198.366 40.8097C198.068 40.2197 197.919 39.5253 197.919 38.7266C197.919 37.9411 198.068 37.2517 198.366 36.6584C198.668 36.0618 199.089 35.5978 199.629 35.2663C200.169 34.9316 200.804 34.7642 201.533 34.7642C202.004 34.7642 202.448 34.8404 202.866 34.9929C203.287 35.142 203.658 35.3741 203.979 35.6889C204.304 36.0038 204.559 36.4048 204.745 36.892C204.93 37.3759 205.023 37.9527 205.023 38.6222V39.174H198.764V37.9609H203.298C203.295 37.6162 203.22 37.3097 203.074 37.0412C202.929 36.7694 202.725 36.5556 202.463 36.3999C202.204 36.2441 201.903 36.1662 201.558 36.1662C201.19 36.1662 200.867 36.2557 200.589 36.4347C200.31 36.6103 200.093 36.8423 199.937 37.1307C199.785 37.4157 199.707 37.7289 199.704 38.0703V39.1293C199.704 39.5734 199.785 39.9545 199.947 40.2727C200.11 40.5876 200.337 40.8295 200.628 40.9986C200.92 41.1643 201.261 41.2472 201.653 41.2472C201.914 41.2472 202.151 41.2107 202.363 41.1378C202.576 41.0616 202.76 40.9505 202.915 40.8047C203.071 40.6589 203.189 40.4782 203.268 40.2628L204.949 40.4517C204.843 40.8958 204.64 41.2836 204.342 41.6151C204.047 41.9432 203.669 42.1984 203.209 42.3807C202.748 42.5597 202.221 42.6491 201.628 42.6491ZM206.546 42.5V34.8636H208.291V36.1364H208.37C208.51 35.6955 208.748 35.3558 209.086 35.1172C209.428 34.8752 209.817 34.7543 210.255 34.7543C210.354 34.7543 210.465 34.7592 210.588 34.7692C210.714 34.7758 210.818 34.7874 210.901 34.804V36.4595C210.825 36.433 210.704 36.4098 210.538 36.3899C210.376 36.3667 210.218 36.3551 210.066 36.3551C209.738 36.3551 209.443 36.4264 209.181 36.5689C208.922 36.7081 208.718 36.902 208.569 37.1506C208.42 37.3991 208.346 37.6858 208.346 38.0107V42.5H206.546Z" fill="#717171"/>
</svg>
